<svg width="192" height="62" viewBox="0 0 192 62" fill="none" xmlns="http://www.w3.org/2000/svg">
<path d="M171.686 29.9673C171.686 29.9673 170.485 15.4497 156.152 15.4497C142.922 15.4497 140.844 29.5276 140.844 29.5276V48.0987C140.844 48.0987 142.031 61.8233 154.838 61.8233H171.686V53.9927H155.304C155.304 53.9927 148.591 53.3295 148.591 46.347H171.686V29.9673V29.9673ZM164.209 38.6365H148.605V29.852C148.605 29.852 149.198 23.0809 156.265 23.0809C163.332 23.0809 164.209 30.544 164.209 30.544V38.6365Z" fill="#0054A5"/>
<path d="M17.937 15.4499H8.77755V0H0.848389V47.7048C0.848389 47.7048 2.35974 61.8235 15.9282 61.8235C29.4967 61.8235 31.7865 50.1076 31.7865 47.9018C31.7865 45.6961 31.7865 29.4701 31.7865 29.4701C31.7865 29.4701 31.3925 17.1462 17.937 15.4499ZM23.9992 46.8278C23.9992 47.8466 23.1077 54.0794 16.3175 54.0794C9.52722 54.0794 8.71989 47.563 8.71989 47.563V23.194C8.71989 23.194 9.79394 23.194 16.5361 23.194C23.2783 23.194 23.9992 30.4168 23.9992 30.4168C23.9992 30.4168 23.9992 45.809 23.9992 46.8278Z" fill="#0054A5"/>
<path d="M101.695 29.4701C101.695 29.4701 101.695 45.6961 101.695 47.9018C101.695 50.1076 103.985 61.8235 117.554 61.8235C131.122 61.8235 132.634 47.7048 132.634 47.7048V0H124.704V15.4499H115.545C102.089 17.1462 101.695 29.4701 101.695 29.4701ZM109.483 30.4168C109.483 30.4168 110.204 23.194 116.946 23.194C123.688 23.194 124.762 23.194 124.762 23.194V47.5606C124.762 47.5606 123.957 54.077 117.164 54.077C110.374 54.077 109.483 47.8441 109.483 46.8254C109.483 45.8066 109.483 30.4168 109.483 30.4168Z" fill="#0054A5"/>
<path d="M51.3908 15.5337H43.3776V61.8233H51.3908V15.5337Z" fill="#0054A5"/>
<path d="M71.0647 15.5337H63.0515V61.8233H71.0647V15.5337Z" fill="#0054A5"/>
<path d="M94.0187 32.3682H86.0054V61.8239H94.0187V32.3682Z" fill="#0054A5"/>
<path d="M191.036 0H183.022V61.8235H191.036V0Z" fill="#0054A5"/>
<path d="M51.3908 0.0507812H43.3776V7.79015H51.3908V0.0507812Z" fill="#0054A5"/>
<path d="M86.5003 33.259L86.0053 32.3676C86.0053 32.3676 86.5147 23.1385 78.6985 23.1241C70.5146 23.1097 66.7831 23.1241 66.7831 23.1241L69.3276 16.4251L71.0672 15.5337H80.2675C80.2675 15.5337 94.021 16.156 94.021 32.3676" fill="#0054A5"/>
</svg>
