<?xml version="1.0" encoding="UTF-8"?>
<svg width="786px" height="534px" viewBox="0 0 786 534" version="1.1" xmlns="http://www.w3.org/2000/svg" xmlns:xlink="http://www.w3.org/1999/xlink">
    <!-- Generator: Sketch 48 (47235) - http://www.bohemiancoding.com/sketch -->
    <title>Combined Shape</title>
    <desc>Created with Sketch.</desc>
    <defs></defs>
    <g id="Page-1" stroke="none" stroke-width="1" fill="none" fill-rule="evenodd">
        <path d="M491.953438,288.553905 L491.987,288.202 L420.473,281.373 L412.68,363.036 C412.68,363.036 413.741,384.361 389.998,382.105 C366.289,379.818 373.311,359.974 373.311,359.974 L380.882,277.249 L309.658,270.806 L300.671,365.033 C300.671,365.033 299.479,420.308 386.909,428.654 C474.367,436.998 482.807,384.457 482.807,384.457 L491.875892,289.367003 L553.387,379.237 L547.525,440.894 L620.359,447.853 L626.352,385.167 L703.793,308.431 L620.779,300.541 L594.428,336.297 L574.005,296.063 L491.953438,288.553905 Z M19.154,126.616 L182.541,0.274 L785.682,58.196 L741.031,533.768 L135.831,475.848 L0.244,318.482 L19.154,126.616 Z M643.715,185.409 L635.309,284.113 L708.883,291.131 L718.289,192.527 L758.621,196.393 L763.133,148.941 L607.926,134.124 L603.414,181.576 L643.715,185.409 Z M455.553,214.98 L429.653,253.186 C429.653,253.186 462.189,270.677 507.323,274.605 C552.389,278.602 585.441,265.682 596.04,244.101 C606.669,222.582 593.944,198.098 573.071,191.303 C552.165,184.537 515.923,177.322 519.692,170.136 C523.462,162.986 546.206,164.467 560.024,170.234 C573.844,176.001 577.614,179.447 577.614,179.447 L601.388,145.463 C601.388,145.463 576.131,126.973 528.871,124.17 C481.583,121.367 446.824,145.044 444.408,167.045 C441.961,189.048 456.101,202.03 477.589,209.892 C477.589,209.892 495.821,215.754 509.576,218.75 C523.299,221.779 532.029,230.83 515.633,234.051 C499.234,237.27 465.506,225.16 455.553,214.98 Z M298.221,104.195 L284.982,249.963 L422.889,263.169 L426.625,224.193 L363.584,218.167 L365.001,203.254 L420.924,208.57 L424.532,170.975 L368.286,165.595 L369.542,152.387 L431.199,158.282 L435.131,117.275 L298.221,104.195 Z M263.688,338.294 C263.688,338.294 293.681,332.398 292.907,301.763 C292.136,271.097 230.927,263.494 230.927,263.494 L129.906,253.474 L116.118,399.758 C116.118,399.758 196.749,408.23 220.231,410.129 C243.716,411.999 291.037,410 295.709,379.75 C300.348,349.474 263.688,338.294 263.688,338.294 Z M248.934,170.686 C248.934,170.686 278.927,164.791 278.153,134.155 C277.38,103.522 216.173,95.852 216.173,95.852 L115.118,85.868 L101.364,232.15 C101.364,232.15 181.995,240.622 205.446,242.492 C228.929,244.424 276.252,242.394 280.924,212.145 C285.593,181.865 248.934,170.686 248.934,170.686 Z M724.957,324.764 C725.506,319.256 721.898,314.906 717,314.456 C712.071,313.973 707.723,317.581 707.208,323.058 C706.661,328.566 710.27,332.913 715.164,333.397 C720.094,333.849 724.441,330.275 724.957,324.764 Z M69.792,232.44 C70.695,222.874 63.705,214.4 54.17,213.499 C44.636,212.597 36.162,219.587 35.228,229.123 C34.327,238.657 41.316,247.161 50.852,248.063 C60.421,248.966 68.893,241.975 69.792,232.44 Z" id="Combined-Shape" fill="#FFFFFF"></path>
        <path d="M180.577,129.195 C180.577,129.195 211.632,126.36 209.924,140.888 C208.186,155.416 178.708,148.844 178.708,148.844 L180.577,129.195 Z" id="Path" fill="#FFFFFF"></path>
        <path d="M174.134,203.834 L175.744,180.027 C175.744,180.027 214.498,178.611 213.275,195.265 C212.019,211.888 174.134,203.834 174.134,203.834 Z" id="Path" fill="#FFFFFF"></path>
        <path d="M194.719,296.417 C194.719,296.417 225.742,293.55 224.034,308.108 C222.293,322.637 192.818,316.065 192.818,316.065 L194.719,296.417 Z" id="Path" fill="#FFFFFF"></path>
        <path d="M188.244,371.021 L189.854,347.25 C189.854,347.25 228.638,345.8 227.382,362.455 C226.126,379.11 188.244,371.021 188.244,371.021 Z" id="Path" fill="#FFFFFF"></path>
    </g>
</svg>