<?xml version="1.0" encoding="UTF-8"?>
<svg width="999px" height="999px" viewBox="0 0 999 999" version="1.1" xmlns="http://www.w3.org/2000/svg" xmlns:xlink="http://www.w3.org/1999/xlink">
    <!-- Generator: Sketch 48 (47235) - http://www.bohemiancoding.com/sketch -->
    <title>ea-electronic-arts-seeklogo.com</title>
    <desc>Created with Sketch.</desc>
    <defs>
        <polygon id="path-1" points="0.06 0.975 998.013 0.975 998.013 999 0.06 999"></polygon>
    </defs>
    <g id="LOGOS" stroke="none" stroke-width="1" fill="none" fill-rule="evenodd" transform="translate(-908.000000, -1428.000000)">
        <g id="ea-electronic-arts-seeklogo.com" transform="translate(908.000000, 1428.000000)">
            <mask id="mask-2" fill="white">
                <use xlink:href="#path-1"></use>
            </mask>
            <g id="Clip-2"></g>
            <path d="M622.695,332.545 L472.624,571.508 L306.16,571.508 L344.565,511.599 L444.336,511.599 L482.448,451.719 L251.794,451.719 L213.69,511.599 L268.331,511.599 L192.519,631.21 L508.908,631.21 L625.768,446.915 L668.377,511.599 L629.957,511.599 L593.572,571.508 L707.345,571.508 L746.851,631.21 L819.427,631.21 L622.695,332.545 Z M572.527,331.974 L327.041,331.974 L289.794,391.832 L534.998,391.832 L572.527,331.974 Z M685.857,337.094 L685.929,337.094 L692.154,354.436 L695.361,354.436 L701.584,337.094 L701.672,337.094 L701.672,354.436 L705.371,354.436 L705.371,331.993 L699.935,331.993 L693.919,349.547 L693.815,349.547 L687.653,331.993 L682.128,331.993 L682.128,354.436 L685.857,354.436 L685.857,337.094 Z M668.539,354.436 L672.477,354.436 L672.477,335.36 L679.575,335.36 L679.575,331.992 L661.458,331.992 L661.458,335.36 L668.54,335.36 L668.54,354.436 L668.539,354.436 Z M499.006,934.368 C259.49,934.368 64.632,739.506 64.632,499.989 C64.632,260.469 259.49,65.608 499.006,65.608 C738.52,65.608 933.381,260.47 933.381,499.989 C933.381,739.505 738.52,934.368 499.006,934.368 Z M499.006,0.975 C223.852,0.975 0,224.83 0,499.989 C0,775.148 223.852,999 499.006,999 C774.162,999 998.013,775.148 998.013,499.989 C998.014,224.83 774.162,0.975 499.006,0.975 Z" id="Fill-1" fill="#FFFFFF" mask="url(#mask-2)"></path>
        </g>
    </g>
</svg>