<svg width="136" height="95" viewBox="0 0 136 95" fill="none" xmlns="http://www.w3.org/2000/svg">
<path d="M70.7868 24.4031C70.7868 23.6572 70.5663 22.9281 70.1532 22.3079C69.7401 21.6877 69.1529 21.2043 68.4659 20.9189C67.7789 20.6335 67.0229 20.5588 66.2936 20.7043C65.5643 20.8498 64.8944 21.209 64.3686 21.7364C63.8428 22.2638 63.4847 22.9358 63.3396 23.6674C63.1945 24.3989 63.269 25.1572 63.5536 25.8463C63.8381 26.5354 64.32 27.1244 64.9383 27.5388C65.5566 27.9532 66.2835 28.1744 67.0271 28.1744C68.0242 28.1744 68.9805 27.7771 69.6856 27.0698C70.3907 26.3626 70.7868 25.4033 70.7868 24.4031ZM64.8396 24.4031C64.8396 23.9691 64.9679 23.5449 65.2083 23.1841C65.4486 22.8232 65.7903 22.542 66.19 22.3759C66.5897 22.2099 67.0295 22.1664 67.4538 22.2511C67.8782 22.3357 68.2679 22.5447 68.5739 22.8516C68.8798 23.1584 69.0881 23.5494 69.1725 23.975C69.2569 24.4007 69.2136 24.8419 69.0481 25.2428C68.8825 25.6437 68.6021 25.9864 68.2424 26.2275C67.8827 26.4686 67.4597 26.5973 67.0271 26.5973C66.7398 26.5973 66.4554 26.5405 66.19 26.4303C65.9246 26.32 65.6834 26.1584 65.4803 25.9546C65.2772 25.7509 65.116 25.509 65.0061 25.2428C64.8962 24.9766 64.8396 24.6913 64.8396 24.4031ZM73.7788 24.4031C73.7798 23.0663 73.3855 21.7593 72.6458 20.6473C71.906 19.5354 70.8541 18.6686 69.623 18.1565C68.392 17.6445 67.0372 17.5102 65.73 17.7708C64.4229 18.0313 63.2222 18.6749 62.2798 19.6202C61.3375 20.5654 60.6958 21.7698 60.4361 23.081C60.1764 24.3921 60.3102 25.7511 60.8207 26.9859C61.3312 28.2208 62.1953 29.2759 63.3039 30.018C64.4124 30.76 65.7154 31.1555 67.0481 31.1545C68.8291 31.1475 70.5349 30.4333 71.7923 29.1681C73.0497 27.9028 73.7564 26.1896 73.7578 24.4031H73.7788ZM61.8844 24.4031C61.8835 23.2047 62.2969 22.0431 63.0541 21.1162C63.8113 20.1893 64.8655 19.5544 66.0371 19.3198C67.2087 19.0852 68.4251 19.2653 69.4791 19.8295C70.5332 20.3936 71.3595 21.307 71.8175 22.4138C72.2754 23.5207 72.3365 24.7525 71.9904 25.8995C71.6443 27.0465 70.9125 28.0376 69.9195 28.704C68.9266 29.3704 67.734 29.6708 66.545 29.554C65.3559 29.4372 64.2441 28.9105 63.3988 28.0636C62.9149 27.5851 62.5302 27.0154 62.2667 26.3872C62.0032 25.759 61.8661 25.0847 61.8634 24.4031H61.8844ZM67.0481 34.1398C69.4751 34.1369 71.8128 33.2212 73.5994 31.5735C75.386 29.9258 76.4916 27.666 76.6979 25.2403C76.9042 22.8147 76.1961 20.3996 74.7135 18.4722C73.2309 16.5448 71.0817 15.2451 68.6902 14.83C66.2988 14.4148 63.8391 14.9143 61.797 16.2298C59.7548 17.5453 58.2787 19.5811 57.6603 21.9352C57.0418 24.2893 57.326 26.7904 58.4566 28.9446C59.5872 31.0987 61.4821 32.7493 63.7669 33.5702C64.4363 33.8072 65.1291 33.9716 65.8335 34.0607C66.2292 34.1131 66.6279 34.1395 67.0271 34.1398H67.0481ZM58.9134 24.4031C58.9145 22.7483 59.4177 21.1331 60.3563 19.7722C61.2948 18.4113 62.6242 17.3692 64.1675 16.7846C65.7108 16.2 67.395 16.1006 68.9961 16.4995C70.5972 16.8984 72.0392 17.7768 73.1304 19.0178C74.2217 20.2588 74.9104 21.8037 75.105 23.4469C75.2997 25.0902 74.9909 26.7539 74.2199 28.2168C73.4489 29.6798 72.2521 30.8726 70.7888 31.6367C69.3255 32.4007 67.6649 32.6998 66.028 32.4942C65.4382 32.4202 64.8582 32.2823 64.298 32.0828C62.7174 31.5182 61.3495 30.4771 60.3818 29.1023C59.4141 27.7274 58.8939 26.0861 58.8924 24.4031H58.9134ZM67.0481 37.1199C70.1749 37.1157 73.1894 35.9511 75.5113 33.8506C77.8332 31.75 79.2982 28.862 79.6241 25.7428C79.95 22.6235 79.1138 19.4936 77.2765 16.9558C75.4392 14.418 72.7308 12.6519 69.6729 11.9975C66.615 11.3431 63.4238 11.8467 60.714 13.4114C58.0041 14.9761 55.9673 17.4911 54.9957 20.4722C54.0241 23.4533 54.1864 26.6896 55.4515 29.5577C56.7166 32.4259 58.9949 34.7231 61.8476 36.007C63.4841 36.7397 65.256 37.1189 67.0481 37.1199ZM55.9425 24.4031C55.9458 22.1033 56.6596 19.8611 57.9858 17.9851C59.3119 16.1091 61.1851 14.6914 63.3475 13.9273C65.51 13.1631 67.8554 13.0901 70.061 13.7181C72.2666 14.3462 74.2238 15.6445 75.6635 17.4344C77.1031 19.2243 77.9542 21.4177 78.0998 23.7129C78.2454 26.008 77.6782 28.292 76.4764 30.2504C75.2745 32.2089 73.4971 33.7456 71.3886 34.6489C69.2802 35.5523 66.9445 35.778 64.7029 35.295C62.2211 34.7581 59.9977 33.3841 58.4036 31.4021C56.8094 29.4201 55.9408 26.9498 55.9425 24.4031ZM61.6531 38.3225C61.6105 38.4182 61.5493 38.5045 61.4732 38.5764C61.3971 38.6482 61.3076 38.7041 61.2097 38.7409C61.1119 38.7777 61.0077 38.7947 60.9033 38.7908C60.7988 38.7868 60.6962 38.7621 60.6014 38.7181C57.0705 37.1358 54.2482 34.299 52.6782 30.7539C51.1081 27.2089 50.9013 23.2066 52.0976 19.5177C53.2939 15.8289 55.8087 12.7146 59.1576 10.7746C62.5065 8.8347 66.4525 8.20636 70.2357 9.01066C74.0189 9.81496 77.3715 11.995 79.6479 15.1309C81.9243 18.2667 82.9633 22.1366 82.5649 25.995C82.1665 29.8535 80.3588 33.4276 77.49 36.0289C74.6212 38.6302 70.8943 40.0747 67.0271 40.0842C65.8651 40.0848 64.7066 39.9574 63.5724 39.7044C63.4658 39.6875 63.3638 39.6488 63.2728 39.5907C63.1817 39.5327 63.1035 39.4565 63.043 39.3669C62.9824 39.2773 62.9409 39.1762 62.9208 39.0699C62.9008 38.9635 62.9027 38.8542 62.9265 38.7486C62.9503 38.643 62.9955 38.5435 63.0591 38.4561C63.1228 38.3687 63.2037 38.2954 63.2967 38.2406C63.3898 38.1859 63.4931 38.1508 63.6002 38.1377C63.7073 38.1246 63.8159 38.1336 63.9194 38.1643C67.4449 38.9662 71.1427 38.3785 74.2483 36.5226C77.354 34.6668 79.6299 31.6849 80.6054 28.1933C81.581 24.7018 81.1815 20.9677 79.4898 17.7633C77.798 14.5588 74.9433 12.129 71.5159 10.9762C68.0884 9.82351 64.3504 10.036 61.0748 11.5699C57.7992 13.1037 55.2364 15.8415 53.9165 19.2172C52.5966 22.5929 52.6204 26.3483 53.983 29.7069C55.3456 33.0655 57.9429 35.7704 61.2377 37.2623C61.3337 37.305 61.4204 37.3665 61.4924 37.4433C61.5645 37.52 61.6205 37.6104 61.6573 37.7092C61.694 37.8079 61.7107 37.9131 61.7064 38.0184C61.702 38.1237 61.6768 38.2271 61.632 38.3225H61.6531ZM59.7127 40.7382C59.6192 40.9242 59.4559 41.0653 59.2587 41.1306C59.0615 41.1959 58.8466 41.18 58.6611 41.0864C54.5837 39.0258 51.4024 35.5356 49.7207 31.2779C48.039 27.0203 47.974 22.2916 49.538 17.9891C51.102 13.6866 54.1862 10.1097 58.2053 7.93709C62.2244 5.76453 66.8988 5.1475 71.3414 6.20308C75.7841 7.25867 79.6858 9.91341 82.3063 13.6636C84.9268 17.4137 86.0837 21.9983 85.5574 26.5474C85.0311 31.0965 82.8582 35.2935 79.4512 38.342C76.0442 41.3905 71.64 43.0784 67.0744 43.0854C65.7021 43.0843 64.3339 42.934 62.9939 42.6371C62.8874 42.6201 62.7854 42.5814 62.6944 42.5233C62.6033 42.4653 62.5251 42.3891 62.4645 42.2995C62.404 42.2099 62.3624 42.1088 62.3424 42.0025C62.3224 41.8961 62.3243 41.7868 62.3481 41.6812C62.3719 41.5757 62.417 41.4761 62.4807 41.3887C62.5444 41.3014 62.6253 41.228 62.7183 41.1733C62.8114 41.1185 62.9147 41.0835 63.0218 41.0703C63.1289 41.0572 63.2375 41.0662 63.341 41.0969C67.5766 42.0499 72.015 41.3467 75.7516 39.1308C79.4883 36.915 82.2418 33.3531 83.451 29.1713C84.6602 24.9895 84.2341 20.5026 82.2594 16.625C80.2847 12.7475 76.9101 9.7713 72.8236 8.30304C68.737 6.83478 64.246 6.985 60.2661 8.72309C56.2861 10.4612 53.1167 13.6563 51.404 17.6571C49.6912 21.658 49.564 26.1635 51.0482 30.2552C52.5325 34.3469 55.5165 37.7168 59.392 39.6781C59.5706 39.78 59.702 39.9483 59.7581 40.1466C59.8142 40.3449 59.7903 40.5574 59.6917 40.7382H59.7127ZM56.5051 42.4208C56.3928 42.5977 56.2151 42.7226 56.011 42.7681C55.8068 42.8136 55.5931 42.776 55.4167 42.6634C52.0482 40.4966 49.3459 37.434 47.6109 33.8171C45.8758 30.2001 45.1762 26.1709 45.59 22.1785C46.0039 18.1862 47.5148 14.3875 49.9546 11.206C52.3943 8.02442 55.667 5.58499 59.4077 4.15957C59.5994 4.10046 59.8063 4.1168 59.9864 4.20524C60.1665 4.29368 60.3062 4.4476 60.3772 4.6357C60.4482 4.82379 60.4451 5.03194 60.3685 5.21783C60.292 5.40373 60.1477 5.5534 59.9651 5.63643C56.4924 6.95775 53.4542 9.2214 51.1899 12.1746C48.9256 15.1277 47.5242 18.6542 47.1424 22.36C46.7606 26.0658 47.4133 29.8052 49.0276 33.1605C50.6419 36.5157 53.1544 39.3548 56.2843 41.3606C56.4462 41.4784 56.5571 41.6538 56.5942 41.8509C56.6314 42.048 56.592 42.2519 56.4841 42.4208H56.5051ZM77.6069 43.3017C74.3833 45.1195 70.7463 46.0715 67.0481 46.0655C65.4755 46.0599 63.908 45.883 62.3734 45.538C62.1735 45.489 62.0006 45.3635 61.8916 45.1884C61.7827 45.0133 61.7463 44.8024 61.7902 44.6007C61.8341 44.399 61.9549 44.2225 62.1267 44.1089C62.2986 43.9953 62.5079 43.9536 62.71 43.9926C67.7484 45.001 72.9804 44.0287 77.3242 41.2768C81.6681 38.5249 84.7916 34.2039 86.0489 29.2071C87.3063 24.2104 86.6013 18.9201 84.0798 14.43C81.5582 9.93992 77.4129 6.59348 72.501 5.0826C72.3115 5.01575 72.1545 4.87888 72.0622 4.69992C71.9699 4.52095 71.9491 4.31339 72.0041 4.11958C72.0591 3.92577 72.1858 3.76032 72.3582 3.65699C72.5307 3.55366 72.736 3.52024 72.9322 3.56355C77.0347 4.73777 80.6986 7.10419 83.462 10.3644C86.2254 13.6246 87.9645 17.6326 88.46 21.8829C88.9555 26.1333 88.1852 30.4356 86.2463 34.2474C84.3073 38.0592 81.2865 41.2097 77.5648 43.3017H77.6069ZM52.2774 42.0885C52.3565 42.155 52.4217 42.2365 52.4694 42.3283C52.5171 42.42 52.5463 42.5203 52.5553 42.6234C52.5644 42.7265 52.553 42.8304 52.522 42.9291C52.491 43.0279 52.441 43.1195 52.3747 43.1988C52.3084 43.2781 52.2272 43.3435 52.1357 43.3914C52.0442 43.4392 51.9442 43.4685 51.8414 43.4775C51.7386 43.4866 51.6351 43.4753 51.5366 43.4442C51.4382 43.4131 51.3469 43.3629 51.2678 43.2964C48.2378 40.7497 45.8649 37.5074 44.3505 33.8447C42.8361 30.182 42.2248 26.2069 42.5685 22.2566C42.9122 18.3064 44.2007 14.4976 46.3248 11.1534C48.4489 7.80926 51.3459 5.02834 54.7699 3.04664C54.9493 2.95824 55.1554 2.94144 55.3467 2.99966C55.538 3.05787 55.7001 3.18674 55.8002 3.36024C55.9004 3.53373 55.9312 3.7389 55.8863 3.93427C55.8415 4.12965 55.7244 4.30066 55.5586 4.41274C52.3523 6.26651 49.6393 8.869 47.6499 11.9992C45.6605 15.1295 44.4536 18.695 44.1315 22.3931C43.8095 26.0912 44.3818 29.8126 45.7999 33.2414C47.2181 36.6702 49.4401 39.7052 52.2774 42.0885ZM61.5637 47.6373C61.6043 47.4318 61.7246 47.2508 61.8981 47.1341C62.0716 47.0175 62.2842 46.9746 62.4891 47.0149C66.5839 47.8395 70.8249 47.537 74.7621 46.1393C74.8614 46.0956 74.9686 46.0729 75.077 46.0726C75.1854 46.0723 75.2927 46.0945 75.3922 46.1376C75.4917 46.1808 75.5813 46.2441 75.6553 46.3235C75.7294 46.403 75.7862 46.4969 75.8225 46.5994C75.8587 46.7019 75.8735 46.8108 75.8659 46.9192C75.8583 47.0277 75.8285 47.1335 75.7784 47.2299C75.7282 47.3263 75.6588 47.4113 75.5744 47.4796C75.49 47.5478 75.3925 47.5979 75.2879 47.6267C72.6432 48.5723 69.8559 49.054 67.0481 49.0509C65.4131 49.0509 63.782 48.8883 62.1789 48.5656C62.0757 48.5479 61.9771 48.5096 61.8889 48.453C61.8007 48.3965 61.7247 48.3227 61.6654 48.2362C61.6061 48.1497 61.5646 48.0521 61.5435 47.9492C61.5225 47.8463 61.5221 47.7403 61.5426 47.6373H61.5637ZM81.2982 44.4726C81.1293 44.5632 80.9334 44.589 80.7469 44.5452C80.5604 44.5015 80.3961 44.3912 80.2848 44.235C80.1734 44.0787 80.1225 43.8871 80.1416 43.6959C80.1607 43.5048 80.2485 43.3272 80.3886 43.1962C83.7176 40.8109 86.3524 37.5782 88.0211 33.8314C89.6899 30.0846 90.3324 25.9592 89.8824 21.8803C89.4324 17.8015 87.9061 13.9168 85.4609 10.6267C83.0157 7.33659 79.74 4.76006 75.9715 3.16268C75.787 3.07563 75.6433 2.92028 75.5705 2.72923C75.4977 2.53818 75.5015 2.32628 75.5811 2.13797C75.6607 1.94967 75.8099 1.79959 75.9974 1.71922C76.1849 1.63886 76.3961 1.63445 76.5868 1.70692C80.6161 3.41443 84.118 6.16962 86.7312 9.68811C89.3444 13.2066 90.9742 17.3609 91.4522 21.7221C91.9302 26.0834 91.2393 30.4936 89.4506 34.4976C87.6619 38.5015 84.8404 41.9541 81.2772 44.499L81.2982 44.4726ZM50.8261 2.05504C50.9954 1.94925 51.1983 1.9117 51.394 1.94994C51.5898 1.98819 51.7638 2.09939 51.8811 2.26118C51.9984 2.42296 52.0503 2.6233 52.0262 2.82189C52.0022 3.02047 51.9041 3.20254 51.7516 3.33147C48.8015 5.47658 46.3351 8.22118 44.5132 11.3864C42.6913 14.5516 41.5548 18.0664 41.1778 21.7017C40.8007 25.3369 41.1916 29.0111 42.3249 32.4847C43.4582 35.9583 45.3085 39.1534 47.7552 41.8617C47.8355 41.9364 47.8994 42.0271 47.9428 42.128C47.9862 42.2288 48.0082 42.3376 48.0074 42.4475C48.0066 42.5573 47.983 42.6658 47.9381 42.766C47.8932 42.8662 47.8279 42.9559 47.7466 43.0294C47.6652 43.1029 47.5695 43.1587 47.4655 43.193C47.3615 43.2274 47.2515 43.2397 47.1425 43.2291C47.0335 43.2185 46.9279 43.1852 46.8324 43.1314C46.7369 43.0776 46.6536 43.0045 46.5879 42.9166C45.3662 41.5629 44.2812 40.0912 43.3487 38.5229C42.8628 37.704 42.4188 36.8607 42.0184 35.9965C39.3499 30.1896 38.7692 23.6347 40.3749 17.4468C41.9807 11.2589 45.6738 5.81997 50.8261 2.05504ZM62.3945 51.6354C62.2925 51.6187 62.1947 51.582 62.1069 51.5274C62.0191 51.4727 61.943 51.4011 61.8829 51.3168C61.8227 51.2325 61.7799 51.137 61.7567 51.036C61.7335 50.935 61.7304 50.8304 61.7477 50.7281C61.7649 50.6256 61.8021 50.5275 61.8571 50.4394C61.9122 50.3512 61.984 50.2749 62.0685 50.2146C62.153 50.1544 62.2485 50.1114 62.3495 50.0882C62.4506 50.065 62.5552 50.062 62.6574 50.0794C66.0188 50.6512 69.4592 50.558 72.785 49.8051C72.8854 49.7822 72.9894 49.7795 73.091 49.7969C73.1925 49.8144 73.2896 49.8517 73.3768 49.9068C73.464 49.9619 73.5394 50.0337 73.5989 50.1181C73.6584 50.2024 73.7008 50.2977 73.7236 50.3985C73.7464 50.4993 73.7492 50.6036 73.7318 50.7054C73.7144 50.8073 73.6771 50.9047 73.6222 50.9921C73.5673 51.0796 73.4957 51.1553 73.4116 51.215C73.3275 51.2747 73.2325 51.3171 73.132 51.34C69.6064 52.1409 65.9586 52.2413 62.3945 51.6354ZM82.8284 47.0255C82.7444 47.0934 82.6473 47.1433 82.5432 47.172C82.4391 47.2008 82.3302 47.2078 82.2233 47.1927C82.1164 47.1775 82.0138 47.1405 81.9217 47.084C81.8296 47.0274 81.7501 46.9525 81.6881 46.8639C81.6261 46.7753 81.5828 46.6748 81.5611 46.5687C81.5393 46.4627 81.5395 46.3532 81.5616 46.2472C81.5838 46.1412 81.6273 46.0409 81.6896 45.9525C81.752 45.8641 81.8317 45.7894 81.924 45.7332C86.1541 42.7584 89.4067 38.5888 91.2681 33.7548C91.6611 32.7363 91.9878 31.6933 92.2461 30.6323C93.5699 25.2421 93.1438 19.5687 91.03 14.4382C88.9162 9.30772 85.225 4.98794 80.4937 2.10778C80.3975 2.05818 80.3124 1.98924 80.2438 1.90525C80.1753 1.82126 80.1247 1.72402 80.0952 1.61957C80.0657 1.51512 80.058 1.4057 80.0725 1.29813C80.0869 1.19055 80.1233 1.08712 80.1794 0.994256C80.2354 0.901397 80.31 0.821098 80.3983 0.758362C80.4866 0.695625 80.5868 0.651792 80.6928 0.629586C80.7987 0.607379 80.9081 0.607276 81.014 0.629284C81.12 0.651292 81.2203 0.694941 81.3088 0.757513C86.3224 3.81305 90.2343 8.39229 92.4764 13.8301C94.7184 19.2679 95.1738 25.2811 93.7763 30.9962C93.4967 32.1235 93.1454 33.2316 92.7246 34.3139C90.7593 39.4437 87.3161 43.8706 82.8337 47.0307L82.8284 47.0255ZM36.5024 24.3978C36.4933 20.1267 37.3779 15.9012 39.0988 11.9944C40.8198 8.08762 43.3389 4.58655 46.4932 1.71747C46.6473 1.57758 46.8505 1.50483 47.0581 1.51522C47.2657 1.5256 47.4607 1.61828 47.6001 1.77285C47.7396 1.92743 47.8121 2.13125 47.8018 2.33947C47.7914 2.54768 47.699 2.74325 47.5449 2.88314C42.8198 7.18884 39.6456 12.94 38.5159 19.2423C37.3861 25.5446 38.3642 32.0447 41.298 37.7318C41.3942 37.9171 41.4131 38.1332 41.3505 38.3326C41.2879 38.5319 41.1489 38.6981 40.9641 38.7946C40.7793 38.8911 40.5639 38.91 40.3652 38.8472C40.1664 38.7844 40.0008 38.645 39.9045 38.4597C37.6643 34.1154 36.4992 29.2941 36.5076 24.4031L36.5024 24.3978ZM71.1128 53.1439C71.2164 53.1293 71.3218 53.1354 71.4231 53.1617C71.5243 53.188 71.6194 53.2341 71.7029 53.2973C71.7864 53.3605 71.8567 53.4395 71.9097 53.5299C71.9627 53.6204 71.9975 53.7204 72.012 53.8243C72.0265 53.9282 72.0205 54.0339 71.9942 54.1355C71.968 54.237 71.9221 54.3324 71.8591 54.4162C71.7961 54.4999 71.7172 54.5704 71.6271 54.6236C71.537 54.6768 71.4373 54.7117 71.3337 54.7262C69.9052 54.9279 68.4644 55.0283 67.0218 55.0269C65.7263 55.0264 64.432 54.9453 63.1464 54.7842C62.9372 54.7577 62.7472 54.6488 62.618 54.4817C62.4888 54.3145 62.4311 54.1027 62.4576 53.8928C62.4841 53.683 62.5926 53.4923 62.7593 53.3628C62.9259 53.2332 63.1371 53.1753 63.3463 53.2019C64.5671 53.3569 65.7965 53.4344 67.0271 53.434C68.3957 53.4328 69.7625 53.3377 71.1181 53.1491L71.1128 53.1439ZM84.5479 49.4517C84.3768 49.556 84.1726 49.5912 83.9767 49.55C83.7807 49.5089 83.6077 49.3946 83.4927 49.2302C83.3777 49.0659 83.3293 48.8638 83.3573 48.665C83.3853 48.4661 83.4876 48.2854 83.6435 48.1595C87.2083 45.6489 90.1645 42.3663 92.2935 38.5546C92.4037 38.3892 92.5721 38.2714 92.765 38.225C92.9579 38.1785 93.1611 38.2066 93.3343 38.3038C93.5074 38.4009 93.6377 38.5599 93.6992 38.7492C93.7606 38.9384 93.7487 39.1439 93.6659 39.3247C91.4213 43.3442 88.3075 46.8082 84.5532 49.4623L84.5479 49.4517ZM88.0447 4.43911C87.9645 4.3659 87.9003 4.27689 87.856 4.17766C87.8117 4.07842 87.7882 3.97108 87.7871 3.86235C87.786 3.75361 87.8072 3.64581 87.8494 3.54568C87.8917 3.44554 87.9541 3.35522 88.0327 3.28035C88.1114 3.20549 88.2045 3.14768 88.3064 3.11055C88.4083 3.07341 88.5167 3.05774 88.6249 3.06452C88.7331 3.07129 88.8388 3.10037 88.9353 3.14993C89.0318 3.19949 89.117 3.26847 89.1858 3.35257C94.5563 9.03212 97.5457 16.5646 97.536 24.3926C97.5271 26.2542 97.3511 28.1113 97.0102 29.9413C96.9732 30.147 96.8564 30.3295 96.6853 30.4487C96.5142 30.5678 96.3029 30.614 96.0979 30.5769C95.8929 30.5398 95.7109 30.4226 95.5921 30.251C95.4733 30.0794 95.4273 29.8674 95.4642 29.6618C95.7798 27.9215 95.9382 26.1562 95.9375 24.3873C95.949 16.9631 93.1136 9.81884 88.0184 4.43384L88.0447 4.43911ZM33.5367 24.4031C33.5257 16.6032 36.2298 9.04417 41.1823 3.03082C41.2466 2.94582 41.3273 2.87474 41.4197 2.82186C41.5121 2.76897 41.6142 2.73537 41.7198 2.72308C41.8255 2.71079 41.9325 2.72006 42.0345 2.75034C42.1365 2.78061 42.2313 2.83126 42.3133 2.89925C42.3953 2.96723 42.4627 3.05115 42.5115 3.14594C42.5603 3.24073 42.5895 3.34445 42.5973 3.45085C42.6051 3.55725 42.5914 3.66414 42.557 3.76508C42.5226 3.86603 42.4681 3.95895 42.397 4.03825C38.3502 8.96557 35.8633 14.9933 35.2552 21.3481C34.6472 27.7029 35.9457 34.095 38.9843 39.7044C39.4225 40.5062 39.8905 41.285 40.3883 42.041C40.7721 42.6318 41.1823 43.2067 41.6082 43.7658C41.6752 43.8482 41.725 43.9432 41.7546 44.0453C41.7841 44.1474 41.7929 44.2545 41.7803 44.36C41.7677 44.4656 41.734 44.5675 41.6812 44.6597C41.6285 44.7519 41.5578 44.8325 41.4733 44.8967C41.3888 44.9609 41.2923 45.0073 41.1895 45.0333C41.0867 45.0592 40.9798 45.0641 40.8751 45.0476C40.7704 45.0312 40.67 44.9937 40.5801 44.9375C40.4901 44.8813 40.4124 44.8075 40.3515 44.7205C39.9098 44.135 39.4839 43.5285 39.0737 42.9113C38.5479 42.1202 38.0589 41.3026 37.6014 40.4587C34.9257 35.5334 33.5279 30.0122 33.5367 24.4031ZM67.0271 58.0175C65.7039 58.0177 64.3818 57.9402 63.0676 57.7854C62.8584 57.761 62.6674 57.6541 62.5368 57.4884C62.4061 57.3228 62.3464 57.1118 62.3708 56.902C62.3952 56.6921 62.5017 56.5006 62.6669 56.3695C62.8321 56.2385 63.0424 56.1786 63.2516 56.2031C64.5049 56.3473 65.7655 56.4195 67.0271 56.4193C68.0788 56.4193 69.1304 56.3719 70.14 56.2717C70.3492 56.2514 70.5579 56.3153 70.7201 56.4493C70.8823 56.5833 70.9848 56.7765 71.005 56.9863C71.0253 57.1962 70.9615 57.4055 70.8279 57.5682C70.6943 57.7309 70.5017 57.8337 70.2925 57.854C69.2163 57.963 68.1279 58.0175 67.0271 58.0175ZM86.483 51.7672C86.3991 51.8275 86.3042 51.8706 86.2037 51.894C86.1032 51.9175 85.999 51.9209 85.8972 51.904C85.7954 51.8871 85.6979 51.8503 85.6103 51.7956C85.5227 51.7409 85.4467 51.6694 85.3866 51.5853C85.3265 51.5011 85.2836 51.4059 85.2602 51.3051C85.2368 51.2043 85.2334 51.0998 85.2502 50.9977C85.2671 50.8956 85.3038 50.7978 85.3584 50.7099C85.4129 50.622 85.4841 50.5458 85.568 50.4855C88.8041 48.1617 91.582 45.2554 93.7605 41.9145C93.8782 41.7466 94.0562 41.6311 94.2571 41.5924C94.458 41.5537 94.666 41.5948 94.8373 41.707C95.0086 41.8193 95.1296 41.9939 95.175 42.194C95.2203 42.3941 95.1864 42.604 95.0804 42.7795C92.7913 46.2754 89.8763 49.3156 86.483 51.7461V51.7672ZM95.4642 9.87185C95.4173 9.77973 95.3889 9.67923 95.3806 9.57609C95.3724 9.47296 95.3845 9.36921 95.4162 9.27076C95.448 9.17231 95.4987 9.0811 95.5656 9.00233C95.6325 8.92356 95.7142 8.85878 95.806 8.81168C95.8979 8.76458 95.9981 8.73608 96.1009 8.72782C96.2037 8.71956 96.3071 8.73169 96.4053 8.76353C96.5034 8.79536 96.5943 8.84628 96.6729 8.91337C96.7514 8.98045 96.816 9.0624 96.863 9.15452C100.032 15.3967 101.181 22.4751 100.149 29.4033C100.119 29.6132 100.006 29.8022 99.8366 29.9288C99.667 30.0554 99.4542 30.1092 99.245 30.0785C99.0358 30.0477 98.8474 29.9348 98.7211 29.7647C98.5949 29.5946 98.5412 29.3811 98.5719 29.1713C99.5397 22.5656 98.4372 15.8215 95.4169 9.87185H95.4642ZM30.5604 24.4031C30.5507 17.8454 32.3075 11.4069 35.6453 5.76829C35.7512 5.58853 35.9241 5.45837 36.1258 5.40644C36.3274 5.35451 36.5414 5.38506 36.7206 5.49138C36.8998 5.59769 37.0296 5.77106 37.0813 5.97334C37.1331 6.17563 37.1026 6.39026 36.9967 6.57001C33.7998 11.9982 32.1213 18.1907 32.1379 24.4953C32.1546 30.7999 33.8658 36.9833 37.0913 42.3944C37.512 43.0977 37.9572 43.7834 38.4269 44.4515C39.6489 46.2046 41.0288 47.8413 42.5495 49.341C42.6798 49.4914 42.7488 49.6856 42.7426 49.8848C42.7363 50.084 42.6554 50.2736 42.5159 50.4155C42.3764 50.5574 42.1886 50.6413 41.9901 50.6504C41.7916 50.6594 41.597 50.593 41.4452 50.4644C39.8565 48.8987 38.4149 47.1896 37.1386 45.3587C36.6496 44.6572 36.1816 43.9399 35.7452 43.2067C32.3431 37.529 30.5504 31.0275 30.5604 24.4031ZM67.0271 60.9765C66.2121 60.9765 65.4075 60.9501 64.6082 60.8974C64.5047 60.8908 64.4034 60.8638 64.3102 60.818C64.217 60.7721 64.1337 60.7084 64.0651 60.6302C63.9965 60.5521 63.944 60.4612 63.9104 60.3627C63.8768 60.2642 63.8629 60.16 63.8695 60.0561C63.876 59.9522 63.9029 59.8506 63.9486 59.7571C63.9943 59.6637 64.0579 59.5802 64.1358 59.5113C64.2137 59.4425 64.3043 59.3898 64.4025 59.3561C64.5007 59.3224 64.6046 59.3085 64.7082 59.315C65.4759 59.3678 66.2489 59.3942 67.0271 59.3942C68.649 59.3942 70.2689 59.2814 71.8753 59.0566C72.0845 59.0272 72.2967 59.0824 72.4654 59.21C72.634 59.3376 72.7452 59.5272 72.7745 59.737C72.8038 59.9468 72.7487 60.1597 72.6215 60.3289C72.4943 60.498 72.3053 60.6096 72.0961 60.6389C70.416 60.8664 68.7225 60.9791 67.0271 60.9765ZM88.5863 53.8823C88.4176 54.0041 88.2079 54.0546 88.0025 54.0231C87.797 53.9915 87.612 53.8804 87.4873 53.7135C87.4259 53.6302 87.3814 53.5355 87.3566 53.4349C87.3318 53.3342 87.3271 53.2297 87.3427 53.1272C87.3584 53.0247 87.3941 52.9264 87.4478 52.8378C87.5015 52.7493 87.5721 52.6722 87.6556 52.6111C90.616 50.4393 93.2173 47.814 95.3643 44.8313C95.4247 44.7474 95.5011 44.6764 95.5889 44.6222C95.6766 44.5679 95.7742 44.5316 95.876 44.5151C95.9778 44.4987 96.0819 44.5026 96.1822 44.5265C96.2825 44.5504 96.3771 44.5939 96.4607 44.6546C96.5442 44.7152 96.6151 44.7917 96.6691 44.8798C96.7232 44.9678 96.7595 45.0657 96.7758 45.1678C96.7922 45.27 96.7883 45.3743 96.7645 45.4749C96.7406 45.5756 96.6973 45.6705 96.6369 45.7543C94.4 48.8659 91.6927 51.6083 88.6126 53.8823H88.5863ZM99.5079 11.6019C99.4703 11.5056 99.4519 11.4028 99.4539 11.2994C99.4558 11.196 99.4781 11.094 99.5194 10.9993C99.5606 10.9045 99.6201 10.8188 99.6943 10.7471C99.7686 10.6754 99.8563 10.619 99.9522 10.5813C100.048 10.5435 100.151 10.5251 100.254 10.5271C100.357 10.529 100.459 10.5514 100.553 10.5927C100.647 10.6341 100.733 10.6938 100.804 10.7683C100.876 10.8428 100.932 10.9307 100.97 11.027C103.226 16.812 103.984 23.0761 103.173 29.2345C103.146 29.4444 103.037 29.6348 102.869 29.7639C102.702 29.893 102.491 29.9502 102.282 29.9229C102.073 29.8956 101.883 29.7861 101.754 29.6184C101.625 29.4508 101.568 29.2387 101.595 29.0288C102.373 23.1418 101.649 17.1533 99.4921 11.623L99.5079 11.6019ZM102.663 11.6019C102.61 11.4092 102.632 11.2035 102.724 11.0263C102.816 10.8491 102.972 10.7135 103.16 10.6467C103.348 10.5799 103.554 10.5869 103.737 10.6662C103.92 10.7456 104.066 10.8914 104.146 11.0744C104.33 11.6019 104.509 12.1293 104.672 12.6568C105.85 16.4655 106.447 20.431 106.444 24.4189C106.445 26.0054 106.352 27.5906 106.165 29.166C106.14 29.3758 106.033 29.5671 105.867 29.6976C105.701 29.8282 105.491 29.8874 105.282 29.8622C105.072 29.837 104.882 29.7295 104.752 29.5634C104.621 29.3972 104.562 29.1859 104.587 28.9761C105.218 23.6593 104.731 18.2689 103.157 13.1526C102.994 12.6251 102.826 12.1346 102.631 11.6335L102.663 11.6019ZM27.5737 24.4137C27.566 18.8691 28.7253 13.3854 30.9759 8.32115C31.0121 8.2181 31.0693 8.12371 31.1437 8.04392C31.2182 7.96413 31.3083 7.90068 31.4084 7.85756C31.5085 7.81444 31.6165 7.7926 31.7254 7.7934C31.8343 7.79421 31.9419 7.81764 32.0414 7.86223C32.1409 7.90682 32.2301 7.97159 32.3033 8.05247C32.3766 8.13335 32.4324 8.22857 32.4671 8.33215C32.5019 8.43572 32.5149 8.54539 32.5053 8.65425C32.4957 8.76311 32.4637 8.86879 32.4114 8.96464C29.833 14.7658 28.7481 21.1236 29.2562 27.4547C29.7642 33.7858 31.849 39.8877 35.3192 45.2005C35.7434 45.8545 36.1869 46.4927 36.6496 47.1151C38.7768 49.951 41.2862 52.477 44.1059 54.6207C44.2712 54.7473 44.3796 54.9346 44.4072 55.1413C44.4348 55.3481 44.3794 55.5573 44.2532 55.7231C44.127 55.8889 43.9403 55.9976 43.7342 56.0253C43.5281 56.053 43.3195 55.9974 43.1542 55.8708C40.2287 53.637 37.6287 51.0042 35.4297 48.0487C34.9459 47.4017 34.4832 46.7371 34.0415 46.0549C29.8365 39.632 27.6007 32.1135 27.6105 24.4295L27.5737 24.4137ZM77.4491 61.7571C77.4752 61.8572 77.4814 61.9615 77.4672 62.064C77.4531 62.1665 77.4189 62.2651 77.3666 62.3543C77.3143 62.4435 77.245 62.5215 77.1626 62.5837C77.0802 62.646 76.9864 62.6913 76.8865 62.7171C73.6607 63.5517 70.3427 63.9735 67.0113 63.9724C66.8021 63.9724 66.6015 63.8891 66.4536 63.7407C66.3057 63.5923 66.2226 63.3911 66.2226 63.1812C66.2226 62.9714 66.3057 62.7702 66.4536 62.6218C66.6015 62.4734 66.8021 62.3901 67.0113 62.3901C70.2039 62.3909 73.3839 61.9886 76.4763 61.1928C76.5775 61.1616 76.6839 61.1513 76.7891 61.1625C76.8943 61.1736 76.9962 61.2061 77.0886 61.2578C77.181 61.3096 77.2619 61.3796 77.3266 61.4636C77.3913 61.5476 77.4383 61.6439 77.4649 61.7466L77.4491 61.7571ZM90.921 55.8708C90.7541 55.9778 90.5532 56.0179 90.3582 55.9831C90.1631 55.9484 89.9883 55.8413 89.8684 55.6831C89.7485 55.525 89.6923 55.3273 89.711 55.1295C89.7296 54.9317 89.8218 54.7482 89.9692 54.6155C92.6999 52.5271 95.1373 50.0788 97.2153 47.3366C97.3408 47.1702 97.5271 47.0605 97.7332 47.0319C97.9393 47.0032 98.1483 47.0578 98.3143 47.1837C98.4802 47.3096 98.5895 47.4965 98.6181 47.7032C98.6467 47.9099 98.5923 48.1196 98.4668 48.2861C96.3081 51.1392 93.7752 53.687 90.9368 55.8602L90.921 55.8708ZM104.467 8.07325C104.415 7.97704 104.385 7.87129 104.376 7.76264C104.368 7.65398 104.382 7.54475 104.418 7.4418C104.453 7.33885 104.51 7.24441 104.584 7.16438C104.657 7.08436 104.747 7.02048 104.846 6.97676C104.946 6.93304 105.053 6.91041 105.162 6.9103C105.271 6.91019 105.378 6.9326 105.478 6.97612C105.577 7.01965 105.667 7.08334 105.741 7.16322C105.815 7.2431 105.871 7.33743 105.907 7.44031C108.909 14.3883 110.016 22.0117 109.115 29.5299C109.102 29.6338 109.07 29.7342 109.019 29.8255C108.968 29.9167 108.899 29.9969 108.817 30.0616C108.735 30.1262 108.641 30.174 108.541 30.2023C108.44 30.2305 108.335 30.2386 108.232 30.2262C108.128 30.2137 108.028 30.1809 107.937 30.1296C107.846 30.0783 107.766 30.0096 107.702 29.9273C107.637 29.845 107.589 29.7508 107.561 29.65C107.533 29.5493 107.525 29.4439 107.537 29.34C108.419 22.1018 107.353 14.7589 104.451 8.07325H104.467ZM52.2617 63.4555C52.1834 63.6485 52.0323 63.8028 51.8413 63.8848C51.6503 63.9667 51.4348 63.9698 51.2415 63.8933C44.4406 61.1507 38.4628 56.6899 33.889 50.9444C33.3036 50.2165 32.7462 49.4693 32.2168 48.7027C31.4281 47.574 30.7024 46.4083 30.0241 45.2057C29.635 44.5025 29.2651 43.7992 28.9146 43.0959C28.1799 41.5958 27.5355 40.0529 26.9848 38.4755C23.9345 29.6877 23.8237 20.142 26.6693 11.2854C26.7334 11.0868 26.8736 10.9218 27.059 10.8269C27.2444 10.7319 27.4598 10.7147 27.6578 10.7791C27.8559 10.8434 28.0203 10.984 28.115 11.17C28.2096 11.356 28.2268 11.572 28.1626 11.7707C25.4258 20.2997 25.5328 29.4908 28.4676 37.9533C29.0015 39.4714 29.6212 40.9577 30.3238 42.405C30.6744 43.1082 31.0249 43.7887 31.3755 44.4462C32.0275 45.6066 32.7269 46.7301 33.4788 47.8166C33.9941 48.5551 34.5305 49.2741 35.0879 49.9739C39.4966 55.507 45.257 59.8023 51.8094 62.4428C51.9075 62.4786 51.9976 62.5336 52.0743 62.6046C52.1511 62.6756 52.213 62.7612 52.2565 62.8564C52.3001 62.9516 52.3243 63.0545 52.3279 63.1591C52.3315 63.2638 52.3143 63.3681 52.2774 63.4661L52.2617 63.4555ZM93.4345 57.6536C93.3581 57.739 93.2639 57.8066 93.1587 57.8516C93.0534 57.8966 92.9396 57.9179 92.8253 57.9141C92.7109 57.9102 92.5988 57.8813 92.4968 57.8294C92.3948 57.7774 92.3053 57.7037 92.2347 57.6133C92.1642 57.523 92.1142 57.4182 92.0883 57.3064C92.0624 57.1946 92.0612 57.0785 92.0849 56.9662C92.1085 56.8539 92.1564 56.7482 92.2251 56.6565C92.2939 56.5647 92.3818 56.4892 92.4827 56.4352C94.8927 54.5039 97.0798 52.3084 99.0031 49.8895C99.1375 49.7387 99.3244 49.6453 99.5253 49.6284C99.7262 49.6115 99.926 49.6725 100.084 49.7988C100.241 49.925 100.344 50.107 100.372 50.3074C100.4 50.5077 100.351 50.7111 100.234 50.8758C98.2329 53.3893 95.9576 55.6698 93.4503 57.6747L93.4345 57.6536ZM96.0059 59.3994C95.9264 59.4656 95.8348 59.5154 95.7362 59.546C95.6376 59.5767 95.534 59.5875 95.4312 59.578C95.3284 59.5684 95.2285 59.5386 95.1372 59.4904C95.0458 59.4421 94.9649 59.3762 94.8989 59.2966C94.833 59.2169 94.7834 59.125 94.7528 59.0261C94.7223 58.9272 94.7115 58.8232 94.721 58.7201C94.7305 58.617 94.7602 58.5168 94.8083 58.4252C94.8564 58.3336 94.9221 58.2525 95.0015 58.1863C97.1053 56.437 99.0417 54.4946 100.786 52.3843C100.922 52.2326 101.111 52.1396 101.314 52.1246C101.517 52.1096 101.718 52.1738 101.875 52.3039C102.031 52.4339 102.132 52.6197 102.155 52.8225C102.179 53.0252 102.123 53.2292 102 53.3918C100.198 55.5825 98.1961 57.6007 96.0216 59.4205L96.0059 59.3994ZM109.125 12.2348C109.097 12.1354 109.089 12.0314 109.1 11.9287C109.112 11.826 109.144 11.7267 109.194 11.6363C109.244 11.5459 109.311 11.4663 109.392 11.4021C109.473 11.3378 109.565 11.2901 109.664 11.2617C109.763 11.2333 109.867 11.2247 109.97 11.2365C110.072 11.2483 110.171 11.2803 110.261 11.3305C110.351 11.3807 110.431 11.4482 110.495 11.5291C110.559 11.6101 110.606 11.7029 110.635 11.8023C110.824 12.4616 110.997 13.1262 111.16 13.7908C112.441 19.2036 112.73 24.8048 112.012 30.3211C111.986 30.5309 111.877 30.7216 111.711 30.8512C111.544 30.9808 111.333 31.0386 111.124 31.0121C110.914 30.9855 110.724 30.8766 110.595 30.7095C110.466 30.5423 110.408 30.3305 110.435 30.1207C110.68 28.2177 110.803 26.3008 110.803 24.382C110.804 20.9396 110.404 17.5089 109.609 14.16C109.457 13.5113 109.288 12.873 109.083 12.2348H109.125ZM45.4416 63.5663C45.3373 63.7413 45.1694 63.8689 44.9731 63.922C44.7769 63.9752 44.5678 63.9497 44.3899 63.8511C39.6953 61.1345 35.5229 57.5976 32.0696 53.4076C31.5052 52.7254 30.9618 52.0222 30.4395 51.2978C29.0841 49.4438 27.8695 47.4902 26.806 45.4536C23.4175 38.9524 21.6528 31.7234 21.6633 24.3873C21.6633 22.9737 21.7317 21.5707 21.8526 20.1677C21.8947 19.751 21.9367 19.3396 21.9841 18.9229C22.0092 18.7131 22.1164 18.5218 22.282 18.3913C22.4477 18.2607 22.6583 18.2015 22.8675 18.2267C23.0767 18.2518 23.2673 18.3593 23.3975 18.5255C23.5277 18.6917 23.5867 18.9029 23.5616 19.1128C23.5125 19.5101 23.4704 19.911 23.4354 20.3154C23.3127 21.6481 23.2513 22.9983 23.2513 24.3662C23.2361 33.7114 26.2068 42.8155 31.7278 50.3431C32.2536 51.0341 32.7795 51.7092 33.3053 52.3685C36.6239 56.4219 40.6377 59.8479 45.1576 62.485C45.3381 62.5907 45.4694 62.764 45.5226 62.9667C45.5759 63.1695 45.5467 63.3851 45.4416 63.5663ZM97.2521 62.2635C97.1727 62.3366 97.0791 62.3927 96.9773 62.4281C96.8754 62.4636 96.7674 62.4778 96.6599 62.4697C96.5524 62.4617 96.4476 62.4316 96.3521 62.3813C96.2566 62.3311 96.1724 62.2617 96.1047 62.1776C96.037 62.0934 95.9872 61.9962 95.9585 61.8919C95.9297 61.7877 95.9225 61.6787 95.9374 61.5716C95.9523 61.4644 95.9889 61.3615 96.045 61.2691C96.1011 61.1768 96.1754 61.0969 96.2635 61.0345C98.575 59.1792 100.707 57.1095 102.631 54.8528C102.698 54.7742 102.78 54.7096 102.872 54.6627C102.964 54.6157 103.064 54.5874 103.167 54.5793C103.27 54.5713 103.373 54.5836 103.471 54.6156C103.569 54.6475 103.66 54.6986 103.738 54.7658C103.817 54.833 103.881 54.915 103.928 55.0071C103.975 55.0993 104.003 55.1998 104.011 55.3029C104.019 55.406 104.007 55.5097 103.975 55.608C103.943 55.7064 103.892 55.7974 103.825 55.8761C101.84 58.209 99.6396 60.3478 97.2521 62.2635ZM115.23 20.5949C115.332 21.8538 115.381 23.1284 115.378 24.4189C115.379 26.4626 115.253 28.5043 114.999 30.5321C114.973 30.7419 114.865 30.9329 114.699 31.0629C114.533 31.193 114.322 31.2516 114.113 31.2257C113.904 31.1998 113.713 31.0916 113.584 30.9249C113.454 30.7583 113.396 30.5468 113.422 30.3369C113.667 28.3738 113.789 26.3973 113.79 24.4189C113.79 23.1741 113.742 21.9434 113.648 20.7268C113.59 20.0042 113.516 19.2816 113.432 18.5695C113.295 17.5146 113.127 16.4597 112.906 15.4048C112.887 15.3033 112.887 15.199 112.907 15.0977C112.928 14.9964 112.968 14.9001 113.026 14.8144C113.083 14.7287 113.157 14.6552 113.243 14.5981C113.329 14.541 113.426 14.5015 113.527 14.4818C113.628 14.462 113.732 14.4625 113.833 14.4831C113.934 14.5037 114.03 14.544 114.115 14.6018C114.201 14.6596 114.274 14.7337 114.331 14.8199C114.388 14.9061 114.427 15.0027 114.447 15.1042C114.657 16.1872 114.832 17.2808 114.973 18.3849C115.094 19.0864 115.173 19.8301 115.23 20.5685V20.5949ZM21.0691 39.5568C21.024 39.367 21.0503 39.1671 21.1431 38.9957C21.2359 38.8242 21.3886 38.6932 21.5719 38.6277C21.7551 38.5623 21.956 38.5671 22.136 38.6413C22.3159 38.7154 22.4622 38.8536 22.5467 39.0293C24.2127 44.1171 26.7365 48.8805 30.0083 53.1122C30.0793 53.1935 30.1328 53.2884 30.1658 53.3913C30.1988 53.4941 30.2104 53.6026 30.2 53.7101C30.1895 53.8176 30.1573 53.9218 30.1051 54.0163C30.053 54.1108 29.9822 54.1937 29.897 54.2597C29.8118 54.3257 29.714 54.3735 29.6096 54.4001C29.5053 54.4268 29.3966 54.4318 29.2903 54.4147C29.1839 54.3976 29.0822 54.3589 28.9914 54.3009C28.9005 54.2429 28.8225 54.1669 28.7621 54.0775C25.3883 49.7145 22.7862 44.8029 21.0691 39.5568ZM39.7783 62.5747C39.882 62.6263 39.9731 62.7001 40.0451 62.791C40.1171 62.8819 40.1683 62.9875 40.1951 63.1005C40.2218 63.2134 40.2235 63.3309 40.1999 63.4445C40.1763 63.5582 40.1281 63.6652 40.0587 63.7581C39.9892 63.851 39.9003 63.9274 39.7981 63.9819C39.6959 64.0364 39.5831 64.0677 39.4675 64.0735C39.3519 64.0794 39.2365 64.0597 39.1293 64.0158C39.0222 63.9719 38.926 63.9048 38.8476 63.8195C36.9693 62.4677 35.1892 60.9836 33.5209 59.3783C33.3774 59.2313 33.2968 59.0339 33.2959 58.8282C33.2951 58.6224 33.3743 58.4245 33.5166 58.2763C33.6588 58.1281 33.8531 58.0413 34.0581 58.0343C34.2631 58.0274 34.4627 58.1008 34.6146 58.239C36.2277 59.7936 37.9499 61.2302 39.7678 62.5378L39.7783 62.5747ZM101.254 62.7909C101.177 62.8602 101.088 62.9136 100.99 62.9482C100.893 62.9828 100.79 62.9978 100.687 62.9924C100.584 62.987 100.483 62.9613 100.39 62.9168C100.297 62.8723 100.213 62.8098 100.144 62.7329C100.075 62.656 100.022 62.5663 99.9874 62.4687C99.9529 62.3712 99.9379 62.2678 99.9433 62.1644C99.9487 62.0611 99.9743 61.9598 100.019 61.8664C100.063 61.773 100.125 61.6893 100.202 61.62C101.632 60.3313 102.989 58.963 104.267 57.5217C104.406 57.365 104.602 57.2703 104.811 57.2585C105.02 57.2466 105.225 57.3185 105.381 57.4584C105.538 57.5983 105.632 57.7947 105.644 58.0044C105.656 58.2141 105.584 58.4199 105.445 58.5766C104.128 60.0512 102.729 61.4495 101.254 62.7646V62.7909ZM118.301 22.1773C118.338 22.9315 118.354 23.6911 118.354 24.4506C118.354 26.1859 118.264 27.9054 118.101 29.6038C118.091 29.7077 118.06 29.8085 118.011 29.9005C117.962 29.9925 117.895 30.0739 117.815 30.14C117.734 30.2062 117.641 30.2557 117.542 30.2859C117.442 30.316 117.337 30.3262 117.234 30.3158C117.13 30.3054 117.03 30.2747 116.938 30.2253C116.846 30.176 116.765 30.109 116.699 30.0282C116.633 29.9473 116.584 29.8543 116.554 29.7543C116.524 29.6544 116.514 29.5494 116.524 29.4455C116.685 27.8034 116.768 26.1384 116.771 24.4506C116.771 23.7121 116.771 22.979 116.724 22.2458C116.719 22.1419 116.735 22.0382 116.771 21.9405C116.806 21.8427 116.861 21.753 116.931 21.6763C117.001 21.5997 117.085 21.5376 117.179 21.4937C117.273 21.4498 117.375 21.4249 117.478 21.4204C117.582 21.4159 117.685 21.4319 117.783 21.4675C117.88 21.5031 117.97 21.5576 118.046 21.6279C118.122 21.6981 118.184 21.7828 118.228 21.8771C118.272 21.9714 118.297 22.0734 118.301 22.1773ZM20.496 46.2026C20.4081 46.0131 20.3989 45.7963 20.4704 45.5999C20.5419 45.4036 20.6882 45.2438 20.8772 45.1556C21.0662 45.0675 21.2823 45.0583 21.478 45.13C21.6738 45.2017 21.8331 45.3485 21.921 45.538C23.5392 49.0106 25.5506 52.2848 27.9155 55.2959C28.0372 55.4615 28.0898 55.6682 28.0621 55.8721C28.0344 56.076 27.9286 56.261 27.7672 56.388C27.6057 56.5149 27.4014 56.5738 27.1974 56.5521C26.9934 56.5304 26.8058 56.4298 26.6745 56.2717C24.2322 53.1492 22.1573 49.7546 20.4907 46.1552L20.496 46.2026ZM108.242 59.9163C107.075 61.2807 105.848 62.5835 104.561 63.8247C104.489 63.9057 104.4 63.9707 104.301 64.0158C104.203 64.0609 104.096 64.085 103.987 64.0868C103.879 64.0885 103.771 64.0677 103.671 64.0258C103.571 63.9839 103.48 63.9217 103.405 63.8431C103.33 63.7645 103.272 63.6713 103.235 63.5691C103.197 63.467 103.181 63.3582 103.187 63.2495C103.194 63.1409 103.222 63.0347 103.271 62.9376C103.32 62.8406 103.389 62.7547 103.473 62.6855C104.728 61.4758 105.923 60.2099 107.059 58.8878C107.196 58.7307 107.389 58.6338 107.596 58.6181C107.804 58.6023 108.009 58.6688 108.168 58.8034C108.315 58.9369 108.405 59.1209 108.422 59.3185C108.438 59.5161 108.38 59.7127 108.258 59.8689L108.242 59.9163ZM121.33 24.4506C121.33 24.8251 121.33 25.1996 121.33 25.574C121.33 26.4496 121.272 27.3199 121.214 28.1849C121.2 28.3948 121.103 28.5902 120.944 28.7282C120.786 28.8661 120.58 28.9354 120.37 28.9207C120.161 28.906 119.966 28.8086 119.829 28.6498C119.691 28.4911 119.622 28.284 119.637 28.0742C119.696 27.2373 119.733 26.3933 119.747 25.5424C119.747 25.1785 119.747 24.8145 119.747 24.4506C119.747 24.2407 119.83 24.0395 119.978 23.8911C120.126 23.7428 120.327 23.6594 120.536 23.6594C120.745 23.6594 120.946 23.7428 121.094 23.8911C121.242 24.0395 121.325 24.2407 121.325 24.4506H121.33ZM30.4342 62.4586C30.5085 62.5303 30.5679 62.616 30.6091 62.7107C30.6504 62.8054 30.6726 62.9074 30.6745 63.0107C30.6765 63.1141 30.6581 63.2168 30.6205 63.313C30.5829 63.4092 30.5267 63.4971 30.4553 63.5716C30.3838 63.646 30.2984 63.7056 30.204 63.747C30.1095 63.7883 30.0079 63.8106 29.9049 63.8126C29.8018 63.8146 29.6994 63.7961 29.6035 63.7584C29.5076 63.7207 29.42 63.6644 29.3458 63.5927C28.5412 62.8173 27.7683 62.0103 27.0111 61.1928C26.5308 60.6688 26.0628 60.1414 25.6071 59.6104C23.0687 56.607 20.8614 53.3371 19.0236 49.8579C18.9367 49.6736 18.9241 49.4629 18.9883 49.2695C19.0524 49.0762 19.1885 48.9151 19.3682 48.8199C19.5478 48.7247 19.7571 48.7027 19.9525 48.7585C20.1479 48.8143 20.3144 48.9436 20.4171 49.1194C22.1963 52.5077 24.3386 55.6912 26.806 58.6135C27.2477 59.141 27.7052 59.6684 28.1732 60.1695C28.9023 60.9712 29.656 61.7483 30.4342 62.5008V62.4586ZM111.665 60.428C110.761 61.5567 109.809 62.6538 108.82 63.7087C108.756 63.799 108.673 63.8746 108.577 63.9304C108.481 63.9863 108.375 64.021 108.264 64.0325C108.154 64.0439 108.043 64.0318 107.938 63.9969C107.832 63.962 107.736 63.905 107.654 63.8299C107.572 63.7547 107.508 63.6631 107.464 63.5609C107.42 63.4588 107.398 63.3485 107.4 63.2373C107.402 63.1262 107.428 63.0167 107.475 62.9161C107.522 62.8155 107.59 62.7261 107.674 62.6538C108.635 61.627 109.557 60.5616 110.44 59.4575C110.571 59.2952 110.761 59.1918 110.968 59.17C111.175 59.1483 111.382 59.2099 111.544 59.3414C111.706 59.4729 111.809 59.6635 111.831 59.8712C111.852 60.0789 111.791 60.2868 111.66 60.4491L111.665 60.428ZM26.4274 62.6327C26.5116 62.705 26.5795 62.7944 26.6267 62.895C26.6739 62.9956 26.6993 63.1051 26.7012 63.2162C26.7031 63.3274 26.6815 63.4377 26.6377 63.5398C26.594 63.642 26.5291 63.7336 26.4475 63.8088C26.3658 63.8839 26.2692 63.9409 26.164 63.9758C26.0587 64.0107 25.9473 64.0229 25.8371 64.0114C25.7268 63.9999 25.6203 63.9652 25.5244 63.9093C25.4286 63.8535 25.3456 63.778 25.2811 63.6876C22.1599 60.356 19.4466 56.6623 17.199 52.685C17.1098 52.5035 17.0933 52.2947 17.1528 52.1014C17.2124 51.9081 17.3436 51.745 17.5193 51.6457C17.6951 51.5464 17.9021 51.5185 18.0978 51.5675C18.2934 51.6166 18.4629 51.739 18.5714 51.9096C20.7601 55.7753 23.3971 59.3676 26.4274 62.6116V62.6327ZM114.473 60.4016C114.555 60.4646 114.623 60.5432 114.674 60.6329C114.726 60.7226 114.758 60.8216 114.771 60.9241C114.784 61.0267 114.776 61.1307 114.748 61.2303C114.721 61.3298 114.674 61.4228 114.61 61.504C114.01 62.2776 113.392 63.0371 112.754 63.7825C112.614 63.9413 112.418 64.038 112.207 64.0514C111.997 64.0647 111.789 63.9936 111.631 63.8538C111.473 63.7139 111.376 63.5166 111.363 63.3054C111.35 63.0943 111.421 62.8864 111.56 62.7276C112.181 62.0068 112.783 61.2684 113.369 60.5124C113.5 60.3581 113.685 60.2605 113.886 60.2399C114.087 60.2193 114.288 60.2772 114.447 60.4016H114.473ZM22.2943 62.4586C22.4139 62.6198 22.468 62.8206 22.4454 63.0203C22.4228 63.2199 22.3254 63.4035 22.1728 63.5337C22.0202 63.6639 21.824 63.731 21.6239 63.7214C21.4238 63.7118 21.2349 63.6261 21.0954 63.4819C19.44 61.5242 17.9102 59.463 16.5154 57.3107C16.4417 57.2262 16.3868 57.1268 16.3543 57.0193C16.3219 56.9118 16.3126 56.7986 16.3272 56.6872C16.3417 56.5758 16.3798 56.4688 16.4388 56.3733C16.4978 56.2778 16.5763 56.196 16.6693 56.1334C16.7622 56.0707 16.8674 56.0286 16.9778 56.0099C17.0883 55.9912 17.2014 55.9963 17.3097 56.0248C17.418 56.0534 17.519 56.1047 17.606 56.1755C17.693 56.2462 17.764 56.3348 17.8142 56.4352C19.1717 58.5308 20.6611 60.5374 22.2733 62.4428L22.2943 62.4586Z" fill="white"/>
<path d="M70.7868 24.4031C70.7868 23.6572 70.5663 22.9281 70.1532 22.3079C69.7401 21.6877 69.1529 21.2043 68.4659 20.9189C67.7789 20.6335 67.0229 20.5588 66.2936 20.7043C65.5643 20.8498 64.8944 21.209 64.3686 21.7364C63.8428 22.2638 63.4847 22.9358 63.3396 23.6674C63.1945 24.3989 63.269 25.1572 63.5536 25.8463C63.8381 26.5354 64.32 27.1244 64.9383 27.5388C65.5566 27.9532 66.2835 28.1744 67.0271 28.1744C68.0242 28.1744 68.9805 27.7771 69.6856 27.0698C70.3907 26.3626 70.7868 25.4033 70.7868 24.4031ZM64.8396 24.4031C64.8396 23.9691 64.9679 23.5449 65.2083 23.1841C65.4486 22.8232 65.7903 22.542 66.19 22.3759C66.5897 22.2099 67.0295 22.1664 67.4538 22.2511C67.8782 22.3357 68.2679 22.5447 68.5739 22.8516C68.8798 23.1584 69.0881 23.5494 69.1725 23.975C69.2569 24.4007 69.2136 24.8419 69.0481 25.2428C68.8825 25.6437 68.6021 25.9864 68.2424 26.2275C67.8827 26.4686 67.4597 26.5973 67.0271 26.5973C66.7398 26.5973 66.4554 26.5405 66.19 26.4303C65.9246 26.32 65.6834 26.1584 65.4803 25.9546C65.2772 25.7509 65.116 25.509 65.0061 25.2428C64.8962 24.9766 64.8396 24.6913 64.8396 24.4031ZM73.7788 24.4031C73.7798 23.0663 73.3855 21.7593 72.6458 20.6473C71.906 19.5354 70.8541 18.6686 69.623 18.1565C68.392 17.6445 67.0372 17.5102 65.73 17.7708C64.4229 18.0313 63.2222 18.6749 62.2798 19.6202C61.3375 20.5654 60.6958 21.7698 60.4361 23.081C60.1764 24.3921 60.3102 25.7511 60.8207 26.9859C61.3312 28.2208 62.1953 29.2759 63.3039 30.018C64.4124 30.76 65.7154 31.1555 67.0481 31.1545C68.8291 31.1475 70.5349 30.4333 71.7923 29.1681C73.0497 27.9028 73.7564 26.1896 73.7578 24.4031H73.7788ZM61.8844 24.4031C61.8835 23.2047 62.2969 22.0431 63.0541 21.1162C63.8113 20.1893 64.8655 19.5544 66.0371 19.3198C67.2087 19.0852 68.4251 19.2653 69.4791 19.8295C70.5332 20.3936 71.3595 21.307 71.8175 22.4138C72.2754 23.5207 72.3365 24.7525 71.9904 25.8995C71.6443 27.0465 70.9125 28.0376 69.9195 28.704C68.9266 29.3704 67.734 29.6708 66.545 29.554C65.3559 29.4372 64.2441 28.9105 63.3988 28.0636C62.9149 27.5851 62.5302 27.0154 62.2667 26.3872C62.0032 25.759 61.8661 25.0847 61.8634 24.4031H61.8844ZM67.0481 34.1398C69.4751 34.1369 71.8128 33.2212 73.5994 31.5735C75.386 29.9258 76.4916 27.666 76.6979 25.2403C76.9042 22.8147 76.1961 20.3996 74.7135 18.4722C73.2309 16.5448 71.0817 15.2451 68.6902 14.83C66.2988 14.4148 63.8391 14.9143 61.797 16.2298C59.7548 17.5453 58.2787 19.5811 57.6603 21.9352C57.0418 24.2893 57.326 26.7904 58.4566 28.9446C59.5872 31.0987 61.4821 32.7493 63.7669 33.5702C64.4363 33.8072 65.1291 33.9716 65.8335 34.0607C66.2292 34.1131 66.6279 34.1395 67.0271 34.1398H67.0481ZM58.9134 24.4031C58.9145 22.7483 59.4177 21.1331 60.3563 19.7722C61.2948 18.4113 62.6242 17.3692 64.1675 16.7846C65.7108 16.2 67.395 16.1006 68.9961 16.4995C70.5972 16.8984 72.0392 17.7768 73.1304 19.0178C74.2217 20.2588 74.9104 21.8037 75.105 23.4469C75.2997 25.0902 74.9909 26.7539 74.2199 28.2168C73.4489 29.6798 72.2521 30.8726 70.7888 31.6367C69.3255 32.4007 67.6649 32.6998 66.028 32.4942C65.4382 32.4202 64.8582 32.2823 64.298 32.0828C62.7174 31.5182 61.3495 30.4771 60.3818 29.1023C59.4141 27.7274 58.8939 26.0861 58.8924 24.4031H58.9134ZM67.0481 37.1199C70.1749 37.1157 73.1894 35.9511 75.5113 33.8506C77.8332 31.75 79.2982 28.862 79.6241 25.7428C79.95 22.6235 79.1138 19.4936 77.2765 16.9558C75.4392 14.418 72.7308 12.6519 69.6729 11.9975C66.615 11.3431 63.4238 11.8467 60.714 13.4114C58.0041 14.9761 55.9673 17.4911 54.9957 20.4722C54.0241 23.4533 54.1864 26.6896 55.4515 29.5577C56.7166 32.4259 58.9949 34.7231 61.8476 36.007C63.4841 36.7397 65.256 37.1189 67.0481 37.1199ZM55.9425 24.4031C55.9458 22.1033 56.6596 19.8611 57.9858 17.9851C59.3119 16.1091 61.1851 14.6914 63.3475 13.9273C65.51 13.1631 67.8554 13.0901 70.061 13.7181C72.2666 14.3462 74.2238 15.6445 75.6635 17.4344C77.1031 19.2243 77.9542 21.4177 78.0998 23.7129C78.2454 26.008 77.6782 28.292 76.4764 30.2504C75.2745 32.2089 73.4971 33.7456 71.3886 34.6489C69.2802 35.5523 66.9445 35.778 64.7029 35.295C62.2211 34.7581 59.9977 33.3841 58.4036 31.4021C56.8094 29.4201 55.9408 26.9498 55.9425 24.4031ZM61.6531 38.3225C61.6105 38.4182 61.5493 38.5045 61.4732 38.5764C61.3971 38.6482 61.3076 38.7041 61.2097 38.7409C61.1119 38.7777 61.0077 38.7947 60.9033 38.7908C60.7988 38.7868 60.6962 38.7621 60.6014 38.7181C57.0705 37.1358 54.2482 34.299 52.6782 30.7539C51.1081 27.2089 50.9013 23.2066 52.0976 19.5177C53.2939 15.8289 55.8087 12.7146 59.1576 10.7746C62.5065 8.8347 66.4525 8.20636 70.2357 9.01066C74.0189 9.81496 77.3715 11.995 79.6479 15.1309C81.9243 18.2667 82.9633 22.1366 82.5649 25.995C82.1665 29.8535 80.3588 33.4276 77.49 36.0289C74.6212 38.6302 70.8943 40.0747 67.0271 40.0842C65.8651 40.0848 64.7066 39.9574 63.5724 39.7044C63.4658 39.6875 63.3638 39.6488 63.2728 39.5907C63.1817 39.5327 63.1035 39.4565 63.043 39.3669C62.9824 39.2773 62.9409 39.1762 62.9208 39.0699C62.9008 38.9635 62.9027 38.8542 62.9265 38.7486C62.9503 38.643 62.9955 38.5435 63.0591 38.4561C63.1228 38.3687 63.2037 38.2954 63.2967 38.2406C63.3898 38.1859 63.4931 38.1508 63.6002 38.1377C63.7073 38.1246 63.8159 38.1336 63.9194 38.1643C67.4449 38.9662 71.1427 38.3785 74.2483 36.5226C77.354 34.6668 79.6299 31.6849 80.6054 28.1933C81.581 24.7018 81.1815 20.9677 79.4898 17.7633C77.798 14.5588 74.9433 12.129 71.5159 10.9762C68.0884 9.82351 64.3504 10.036 61.0748 11.5699C57.7992 13.1037 55.2364 15.8415 53.9165 19.2172C52.5966 22.5929 52.6204 26.3483 53.983 29.7069C55.3456 33.0655 57.9429 35.7704 61.2377 37.2623C61.3337 37.305 61.4204 37.3665 61.4924 37.4433C61.5645 37.52 61.6205 37.6104 61.6573 37.7092C61.694 37.8079 61.7107 37.9131 61.7064 38.0184C61.702 38.1237 61.6768 38.2271 61.632 38.3225H61.6531ZM59.7127 40.7382C59.6192 40.9242 59.4559 41.0653 59.2587 41.1306C59.0615 41.1959 58.8466 41.18 58.6611 41.0864C54.5837 39.0258 51.4024 35.5356 49.7207 31.2779C48.039 27.0203 47.974 22.2916 49.538 17.9891C51.102 13.6866 54.1862 10.1097 58.2053 7.93709C62.2244 5.76453 66.8988 5.1475 71.3414 6.20308C75.7841 7.25867 79.6858 9.91341 82.3063 13.6636C84.9268 17.4137 86.0837 21.9983 85.5574 26.5474C85.0311 31.0965 82.8582 35.2935 79.4512 38.342C76.0442 41.3905 71.64 43.0784 67.0744 43.0854C65.7021 43.0843 64.3339 42.934 62.9939 42.6371C62.8874 42.6201 62.7854 42.5814 62.6944 42.5233C62.6033 42.4653 62.5251 42.3891 62.4645 42.2995C62.404 42.2099 62.3624 42.1088 62.3424 42.0025C62.3224 41.8961 62.3243 41.7868 62.3481 41.6812C62.3719 41.5757 62.417 41.4761 62.4807 41.3887C62.5444 41.3014 62.6253 41.228 62.7183 41.1733C62.8114 41.1185 62.9147 41.0835 63.0218 41.0703C63.1289 41.0572 63.2375 41.0662 63.341 41.0969C67.5766 42.0499 72.015 41.3467 75.7516 39.1308C79.4883 36.915 82.2418 33.3531 83.451 29.1713C84.6602 24.9895 84.2341 20.5026 82.2594 16.625C80.2847 12.7475 76.9101 9.7713 72.8236 8.30304C68.737 6.83478 64.246 6.985 60.2661 8.72309C56.2861 10.4612 53.1167 13.6563 51.404 17.6571C49.6912 21.658 49.564 26.1635 51.0482 30.2552C52.5325 34.3469 55.5165 37.7168 59.392 39.6781C59.5706 39.78 59.702 39.9483 59.7581 40.1466C59.8142 40.3449 59.7903 40.5574 59.6917 40.7382H59.7127ZM56.5051 42.4208C56.3928 42.5977 56.2151 42.7226 56.011 42.7681C55.8068 42.8136 55.5931 42.776 55.4167 42.6634C52.0482 40.4966 49.3459 37.434 47.6109 33.8171C45.8758 30.2001 45.1762 26.1709 45.59 22.1785C46.0039 18.1862 47.5148 14.3875 49.9546 11.206C52.3943 8.02442 55.667 5.58499 59.4077 4.15957C59.5994 4.10046 59.8063 4.1168 59.9864 4.20524C60.1665 4.29368 60.3062 4.4476 60.3772 4.6357C60.4482 4.82379 60.4451 5.03194 60.3685 5.21783C60.292 5.40373 60.1477 5.5534 59.9651 5.63643C56.4924 6.95775 53.4542 9.2214 51.1899 12.1746C48.9256 15.1277 47.5242 18.6542 47.1424 22.36C46.7606 26.0658 47.4133 29.8052 49.0276 33.1605C50.6419 36.5157 53.1544 39.3548 56.2843 41.3606C56.4462 41.4784 56.5571 41.6538 56.5942 41.8509C56.6314 42.048 56.592 42.2519 56.4841 42.4208H56.5051ZM77.6069 43.3017C74.3833 45.1195 70.7463 46.0715 67.0481 46.0655C65.4755 46.0599 63.908 45.883 62.3734 45.538C62.1735 45.489 62.0006 45.3635 61.8916 45.1884C61.7827 45.0133 61.7463 44.8024 61.7902 44.6007C61.8341 44.399 61.9549 44.2225 62.1267 44.1089C62.2986 43.9953 62.5079 43.9536 62.71 43.9926C67.7484 45.001 72.9804 44.0287 77.3242 41.2768C81.6681 38.5249 84.7916 34.2039 86.0489 29.2071C87.3063 24.2104 86.6013 18.9201 84.0798 14.43C81.5582 9.93992 77.4129 6.59348 72.501 5.0826C72.3115 5.01575 72.1545 4.87888 72.0622 4.69992C71.9699 4.52095 71.9491 4.31339 72.0041 4.11958C72.0591 3.92577 72.1858 3.76032 72.3582 3.65699C72.5307 3.55366 72.736 3.52024 72.9322 3.56355C77.0347 4.73777 80.6986 7.10419 83.462 10.3644C86.2254 13.6246 87.9645 17.6326 88.46 21.8829C88.9555 26.1333 88.1852 30.4356 86.2463 34.2474C84.3073 38.0592 81.2865 41.2097 77.5648 43.3017H77.6069ZM52.2774 42.0885C52.3565 42.155 52.4217 42.2365 52.4694 42.3283C52.5171 42.42 52.5463 42.5203 52.5553 42.6234C52.5644 42.7265 52.553 42.8304 52.522 42.9291C52.491 43.0279 52.441 43.1195 52.3747 43.1988C52.3084 43.2781 52.2272 43.3435 52.1357 43.3914C52.0442 43.4392 51.9442 43.4685 51.8414 43.4775C51.7386 43.4866 51.6351 43.4753 51.5366 43.4442C51.4382 43.4131 51.3469 43.3629 51.2678 43.2964C48.2378 40.7497 45.8649 37.5074 44.3505 33.8447C42.8361 30.182 42.2248 26.2069 42.5685 22.2566C42.9122 18.3064 44.2007 14.4976 46.3248 11.1534C48.4489 7.80926 51.3459 5.02834 54.7699 3.04664C54.9493 2.95824 55.1554 2.94144 55.3467 2.99966C55.538 3.05787 55.7001 3.18674 55.8002 3.36024C55.9004 3.53373 55.9312 3.7389 55.8863 3.93427C55.8415 4.12965 55.7244 4.30066 55.5586 4.41274C52.3523 6.26651 49.6393 8.869 47.6499 11.9992C45.6605 15.1295 44.4536 18.695 44.1315 22.3931C43.8095 26.0912 44.3818 29.8126 45.7999 33.2414C47.2181 36.6702 49.4401 39.7052 52.2774 42.0885ZM61.5637 47.6373C61.6043 47.4318 61.7246 47.2508 61.8981 47.1341C62.0716 47.0175 62.2842 46.9746 62.4891 47.0149C66.5839 47.8395 70.8249 47.537 74.7621 46.1393C74.8614 46.0956 74.9686 46.0729 75.077 46.0726C75.1854 46.0723 75.2927 46.0945 75.3922 46.1376C75.4917 46.1808 75.5813 46.2441 75.6553 46.3235C75.7294 46.403 75.7862 46.4969 75.8225 46.5994C75.8587 46.7019 75.8735 46.8108 75.8659 46.9192C75.8583 47.0277 75.8285 47.1335 75.7784 47.2299C75.7282 47.3263 75.6588 47.4113 75.5744 47.4796C75.49 47.5478 75.3925 47.5979 75.2879 47.6267C72.6432 48.5723 69.8559 49.054 67.0481 49.0509C65.4131 49.0509 63.782 48.8883 62.1789 48.5656C62.0757 48.5479 61.9771 48.5096 61.8889 48.453C61.8007 48.3965 61.7247 48.3227 61.6654 48.2362C61.6061 48.1497 61.5646 48.0521 61.5435 47.9492C61.5225 47.8463 61.5221 47.7403 61.5426 47.6373H61.5637ZM81.2982 44.4726C81.1293 44.5632 80.9334 44.589 80.7469 44.5452C80.5604 44.5015 80.3961 44.3912 80.2848 44.235C80.1734 44.0787 80.1225 43.8871 80.1416 43.6959C80.1607 43.5048 80.2485 43.3272 80.3886 43.1962C83.7176 40.8109 86.3524 37.5782 88.0211 33.8314C89.6899 30.0846 90.3324 25.9592 89.8824 21.8803C89.4324 17.8015 87.9061 13.9168 85.4609 10.6267C83.0157 7.33659 79.74 4.76006 75.9715 3.16268C75.787 3.07563 75.6433 2.92028 75.5705 2.72923C75.4977 2.53818 75.5015 2.32628 75.5811 2.13797C75.6607 1.94967 75.8099 1.79959 75.9974 1.71922C76.1849 1.63886 76.3961 1.63445 76.5868 1.70692C80.6161 3.41443 84.118 6.16962 86.7312 9.68811C89.3444 13.2066 90.9742 17.3609 91.4522 21.7221C91.9302 26.0834 91.2393 30.4936 89.4506 34.4976C87.6619 38.5015 84.8404 41.9541 81.2772 44.499L81.2982 44.4726ZM50.8261 2.05504C50.9954 1.94925 51.1983 1.9117 51.394 1.94994C51.5898 1.98819 51.7638 2.09939 51.8811 2.26118C51.9984 2.42296 52.0503 2.6233 52.0262 2.82189C52.0022 3.02047 51.9041 3.20254 51.7516 3.33147C48.8015 5.47658 46.3351 8.22118 44.5132 11.3864C42.6913 14.5516 41.5548 18.0664 41.1778 21.7017C40.8007 25.3369 41.1916 29.0111 42.3249 32.4847C43.4582 35.9583 45.3085 39.1534 47.7552 41.8617C47.8355 41.9364 47.8994 42.0271 47.9428 42.128C47.9862 42.2288 48.0082 42.3376 48.0074 42.4475C48.0066 42.5573 47.983 42.6658 47.9381 42.766C47.8932 42.8662 47.8279 42.9559 47.7466 43.0294C47.6652 43.1029 47.5695 43.1587 47.4655 43.193C47.3615 43.2274 47.2515 43.2397 47.1425 43.2291C47.0335 43.2185 46.9279 43.1852 46.8324 43.1314C46.7369 43.0776 46.6536 43.0045 46.5879 42.9166C45.3662 41.5629 44.2812 40.0912 43.3487 38.5229C42.8628 37.704 42.4188 36.8607 42.0184 35.9965C39.3499 30.1896 38.7692 23.6347 40.3749 17.4468C41.9807 11.2589 45.6738 5.81997 50.8261 2.05504ZM62.3945 51.6354C62.2925 51.6187 62.1947 51.582 62.1069 51.5274C62.0191 51.4727 61.943 51.4011 61.8829 51.3168C61.8227 51.2325 61.7799 51.137 61.7567 51.036C61.7335 50.935 61.7304 50.8304 61.7477 50.7281C61.7649 50.6256 61.8021 50.5275 61.8571 50.4394C61.9122 50.3512 61.984 50.2749 62.0685 50.2146C62.153 50.1544 62.2485 50.1114 62.3495 50.0882C62.4506 50.065 62.5552 50.062 62.6574 50.0794C66.0188 50.6512 69.4592 50.558 72.785 49.8051C72.8854 49.7822 72.9894 49.7795 73.091 49.7969C73.1925 49.8144 73.2896 49.8517 73.3768 49.9068C73.464 49.9619 73.5394 50.0337 73.5989 50.1181C73.6584 50.2024 73.7008 50.2977 73.7236 50.3985C73.7464 50.4993 73.7492 50.6036 73.7318 50.7054C73.7144 50.8073 73.6771 50.9047 73.6222 50.9921C73.5673 51.0796 73.4957 51.1553 73.4116 51.215C73.3275 51.2747 73.2325 51.3171 73.132 51.34C69.6064 52.1409 65.9586 52.2413 62.3945 51.6354ZM82.8284 47.0255C82.7444 47.0934 82.6473 47.1433 82.5432 47.172C82.4391 47.2008 82.3302 47.2078 82.2233 47.1927C82.1164 47.1775 82.0138 47.1405 81.9217 47.084C81.8296 47.0274 81.7501 46.9525 81.6881 46.8639C81.6261 46.7753 81.5828 46.6748 81.5611 46.5687C81.5393 46.4627 81.5395 46.3532 81.5616 46.2472C81.5838 46.1412 81.6273 46.0409 81.6896 45.9525C81.752 45.8641 81.8317 45.7894 81.924 45.7332C86.1541 42.7584 89.4067 38.5888 91.2681 33.7548C91.6611 32.7363 91.9878 31.6933 92.2461 30.6323C93.5699 25.2421 93.1438 19.5687 91.03 14.4382C88.9162 9.30772 85.225 4.98794 80.4937 2.10778C80.3975 2.05818 80.3124 1.98924 80.2438 1.90525C80.1753 1.82126 80.1247 1.72402 80.0952 1.61957C80.0657 1.51512 80.058 1.4057 80.0725 1.29813C80.0869 1.19055 80.1233 1.08712 80.1794 0.994256C80.2354 0.901397 80.31 0.821098 80.3983 0.758362C80.4866 0.695625 80.5868 0.651792 80.6928 0.629586C80.7987 0.607379 80.9081 0.607276 81.014 0.629284C81.12 0.651292 81.2203 0.694941 81.3088 0.757513C86.3224 3.81305 90.2343 8.39229 92.4764 13.8301C94.7184 19.2679 95.1738 25.2811 93.7763 30.9962C93.4967 32.1235 93.1454 33.2316 92.7246 34.3139C90.7593 39.4437 87.3161 43.8706 82.8337 47.0307L82.8284 47.0255ZM36.5024 24.3978C36.4933 20.1267 37.3779 15.9012 39.0988 11.9944C40.8198 8.08762 43.3389 4.58655 46.4932 1.71747C46.6473 1.57758 46.8505 1.50483 47.0581 1.51522C47.2657 1.5256 47.4607 1.61828 47.6001 1.77285C47.7396 1.92743 47.8121 2.13125 47.8018 2.33947C47.7914 2.54768 47.699 2.74325 47.5449 2.88314C42.8198 7.18884 39.6456 12.94 38.5159 19.2423C37.3861 25.5446 38.3642 32.0447 41.298 37.7318C41.3942 37.9171 41.4131 38.1332 41.3505 38.3326C41.2879 38.5319 41.1489 38.6981 40.9641 38.7946C40.7793 38.8911 40.5639 38.91 40.3652 38.8472C40.1664 38.7844 40.0008 38.645 39.9045 38.4597C37.6643 34.1154 36.4992 29.2941 36.5076 24.4031L36.5024 24.3978ZM71.1128 53.1439C71.2164 53.1293 71.3218 53.1354 71.4231 53.1617C71.5243 53.188 71.6194 53.2341 71.7029 53.2973C71.7864 53.3605 71.8567 53.4395 71.9097 53.5299C71.9627 53.6204 71.9975 53.7204 72.012 53.8243C72.0265 53.9282 72.0205 54.0339 71.9942 54.1355C71.968 54.237 71.9221 54.3324 71.8591 54.4162C71.7961 54.4999 71.7172 54.5704 71.6271 54.6236C71.537 54.6768 71.4373 54.7117 71.3337 54.7262C69.9052 54.9279 68.4644 55.0283 67.0218 55.0269C65.7263 55.0264 64.432 54.9453 63.1464 54.7842C62.9372 54.7577 62.7472 54.6488 62.618 54.4817C62.4888 54.3145 62.4311 54.1027 62.4576 53.8928C62.4841 53.683 62.5926 53.4923 62.7593 53.3628C62.9259 53.2332 63.1371 53.1753 63.3463 53.2019C64.5671 53.3569 65.7965 53.4344 67.0271 53.434C68.3957 53.4328 69.7625 53.3377 71.1181 53.1491L71.1128 53.1439ZM84.5479 49.4517C84.3768 49.556 84.1726 49.5912 83.9767 49.55C83.7807 49.5089 83.6077 49.3946 83.4927 49.2302C83.3777 49.0659 83.3293 48.8638 83.3573 48.665C83.3853 48.4661 83.4876 48.2854 83.6435 48.1595C87.2083 45.6489 90.1645 42.3663 92.2935 38.5546C92.4037 38.3892 92.5721 38.2714 92.765 38.225C92.9579 38.1785 93.1611 38.2066 93.3343 38.3038C93.5074 38.4009 93.6377 38.5599 93.6992 38.7492C93.7606 38.9384 93.7487 39.1439 93.6659 39.3247C91.4213 43.3442 88.3075 46.8082 84.5532 49.4623L84.5479 49.4517ZM88.0447 4.43911C87.9645 4.3659 87.9003 4.27689 87.856 4.17766C87.8117 4.07842 87.7882 3.97108 87.7871 3.86235C87.786 3.75361 87.8072 3.64581 87.8494 3.54568C87.8917 3.44554 87.9541 3.35522 88.0327 3.28035C88.1114 3.20549 88.2045 3.14768 88.3064 3.11055C88.4083 3.07341 88.5167 3.05774 88.6249 3.06452C88.7331 3.07129 88.8388 3.10037 88.9353 3.14993C89.0318 3.19949 89.117 3.26847 89.1858 3.35257C94.5563 9.03212 97.5457 16.5646 97.536 24.3926C97.5271 26.2542 97.3511 28.1113 97.0102 29.9413C96.9732 30.147 96.8564 30.3295 96.6853 30.4487C96.5142 30.5678 96.3029 30.614 96.0979 30.5769C95.8929 30.5398 95.7109 30.4226 95.5921 30.251C95.4733 30.0794 95.4273 29.8674 95.4642 29.6618C95.7798 27.9215 95.9382 26.1562 95.9375 24.3873C95.949 16.9631 93.1136 9.81884 88.0184 4.43384L88.0447 4.43911ZM33.5367 24.4031C33.5257 16.6032 36.2298 9.04417 41.1823 3.03082C41.2466 2.94582 41.3273 2.87474 41.4197 2.82186C41.5121 2.76897 41.6142 2.73537 41.7198 2.72308C41.8255 2.71079 41.9325 2.72006 42.0345 2.75034C42.1365 2.78061 42.2313 2.83126 42.3133 2.89925C42.3953 2.96723 42.4627 3.05115 42.5115 3.14594C42.5603 3.24073 42.5895 3.34445 42.5973 3.45085C42.6051 3.55725 42.5914 3.66414 42.557 3.76508C42.5226 3.86603 42.4681 3.95895 42.397 4.03825C38.3502 8.96557 35.8633 14.9933 35.2552 21.3481C34.6472 27.7029 35.9457 34.095 38.9843 39.7044C39.4225 40.5062 39.8905 41.285 40.3883 42.041C40.7721 42.6318 41.1823 43.2067 41.6082 43.7658C41.6752 43.8482 41.725 43.9432 41.7546 44.0453C41.7841 44.1474 41.7929 44.2545 41.7803 44.36C41.7677 44.4656 41.734 44.5675 41.6812 44.6597C41.6285 44.7519 41.5578 44.8325 41.4733 44.8967C41.3888 44.9609 41.2923 45.0073 41.1895 45.0333C41.0867 45.0592 40.9798 45.0641 40.8751 45.0476C40.7704 45.0312 40.67 44.9937 40.5801 44.9375C40.4901 44.8813 40.4124 44.8075 40.3515 44.7205C39.9098 44.135 39.4839 43.5285 39.0737 42.9113C38.5479 42.1202 38.0589 41.3026 37.6014 40.4587C34.9257 35.5334 33.5279 30.0122 33.5367 24.4031ZM67.0271 58.0175C65.7039 58.0177 64.3818 57.9402 63.0676 57.7854C62.8584 57.761 62.6674 57.6541 62.5368 57.4884C62.4061 57.3228 62.3464 57.1118 62.3708 56.902C62.3952 56.6921 62.5017 56.5006 62.6669 56.3695C62.8321 56.2385 63.0424 56.1786 63.2516 56.2031C64.5049 56.3473 65.7655 56.4195 67.0271 56.4193C68.0788 56.4193 69.1304 56.3719 70.14 56.2717C70.3492 56.2514 70.5579 56.3153 70.7201 56.4493C70.8823 56.5833 70.9848 56.7765 71.005 56.9863C71.0253 57.1962 70.9615 57.4055 70.8279 57.5682C70.6943 57.7309 70.5017 57.8337 70.2925 57.854C69.2163 57.963 68.1279 58.0175 67.0271 58.0175ZM86.483 51.7672C86.3991 51.8275 86.3042 51.8706 86.2037 51.894C86.1032 51.9175 85.999 51.9209 85.8972 51.904C85.7954 51.8871 85.6979 51.8503 85.6103 51.7956C85.5227 51.7409 85.4467 51.6694 85.3866 51.5853C85.3265 51.5011 85.2836 51.4059 85.2602 51.3051C85.2368 51.2043 85.2334 51.0998 85.2502 50.9977C85.2671 50.8956 85.3038 50.7978 85.3584 50.7099C85.4129 50.622 85.4841 50.5458 85.568 50.4855C88.8041 48.1617 91.582 45.2554 93.7605 41.9145C93.8782 41.7466 94.0562 41.6311 94.2571 41.5924C94.458 41.5537 94.666 41.5948 94.8373 41.707C95.0086 41.8193 95.1296 41.9939 95.175 42.194C95.2203 42.3941 95.1864 42.604 95.0804 42.7795C92.7913 46.2754 89.8763 49.3156 86.483 51.7461V51.7672ZM95.4642 9.87185C95.4173 9.77973 95.3889 9.67923 95.3806 9.57609C95.3724 9.47296 95.3845 9.36921 95.4162 9.27076C95.448 9.17231 95.4987 9.0811 95.5656 9.00233C95.6325 8.92356 95.7142 8.85878 95.806 8.81168C95.8979 8.76458 95.9981 8.73608 96.1009 8.72782C96.2037 8.71956 96.3071 8.73169 96.4053 8.76353C96.5034 8.79536 96.5943 8.84628 96.6729 8.91337C96.7514 8.98045 96.816 9.0624 96.863 9.15452C100.032 15.3967 101.181 22.4751 100.149 29.4033C100.119 29.6132 100.006 29.8022 99.8366 29.9288C99.667 30.0554 99.4542 30.1092 99.245 30.0785C99.0358 30.0477 98.8474 29.9348 98.7211 29.7647C98.5949 29.5946 98.5412 29.3811 98.5719 29.1713C99.5397 22.5656 98.4372 15.8215 95.4169 9.87185H95.4642ZM30.5604 24.4031C30.5507 17.8454 32.3075 11.4069 35.6453 5.76829C35.7512 5.58853 35.9241 5.45837 36.1258 5.40644C36.3274 5.35451 36.5414 5.38506 36.7206 5.49138C36.8998 5.59769 37.0296 5.77106 37.0813 5.97334C37.1331 6.17563 37.1026 6.39026 36.9967 6.57001C33.7998 11.9982 32.1213 18.1907 32.1379 24.4953C32.1546 30.7999 33.8658 36.9833 37.0913 42.3944C37.512 43.0977 37.9572 43.7834 38.4269 44.4515C39.6489 46.2046 41.0288 47.8413 42.5495 49.341C42.6798 49.4914 42.7488 49.6856 42.7426 49.8848C42.7363 50.084 42.6554 50.2736 42.5159 50.4155C42.3764 50.5574 42.1886 50.6413 41.9901 50.6504C41.7916 50.6594 41.597 50.593 41.4452 50.4644C39.8565 48.8987 38.4149 47.1896 37.1386 45.3587C36.6496 44.6572 36.1816 43.9399 35.7452 43.2067C32.3431 37.529 30.5504 31.0275 30.5604 24.4031ZM67.0271 60.9765C66.2121 60.9765 65.4075 60.9501 64.6082 60.8974C64.5047 60.8908 64.4034 60.8638 64.3102 60.818C64.217 60.7721 64.1337 60.7084 64.0651 60.6302C63.9965 60.5521 63.944 60.4612 63.9104 60.3627C63.8768 60.2642 63.8629 60.16 63.8695 60.0561C63.876 59.9522 63.9029 59.8506 63.9486 59.7571C63.9943 59.6637 64.0579 59.5802 64.1358 59.5113C64.2137 59.4425 64.3043 59.3898 64.4025 59.3561C64.5007 59.3224 64.6046 59.3085 64.7082 59.315C65.4759 59.3678 66.2489 59.3942 67.0271 59.3942C68.649 59.3942 70.2689 59.2814 71.8753 59.0566C72.0845 59.0272 72.2967 59.0824 72.4654 59.21C72.634 59.3376 72.7452 59.5272 72.7745 59.737C72.8038 59.9468 72.7487 60.1597 72.6215 60.3289C72.4943 60.498 72.3053 60.6096 72.0961 60.6389C70.416 60.8664 68.7225 60.9791 67.0271 60.9765ZM88.5863 53.8823C88.4176 54.0041 88.2079 54.0546 88.0025 54.0231C87.797 53.9915 87.612 53.8804 87.4873 53.7135C87.4259 53.6302 87.3814 53.5355 87.3566 53.4349C87.3318 53.3342 87.3271 53.2297 87.3427 53.1272C87.3584 53.0247 87.3941 52.9264 87.4478 52.8378C87.5015 52.7493 87.5721 52.6722 87.6556 52.6111C90.616 50.4393 93.2173 47.814 95.3643 44.8313C95.4247 44.7474 95.5011 44.6764 95.5889 44.6222C95.6766 44.5679 95.7742 44.5316 95.876 44.5151C95.9778 44.4987 96.0819 44.5026 96.1822 44.5265C96.2825 44.5504 96.3771 44.5939 96.4607 44.6546C96.5442 44.7152 96.6151 44.7917 96.6691 44.8798C96.7232 44.9678 96.7595 45.0657 96.7758 45.1678C96.7922 45.27 96.7883 45.3743 96.7645 45.4749C96.7406 45.5756 96.6973 45.6705 96.6369 45.7543C94.4 48.8659 91.6927 51.6083 88.6126 53.8823H88.5863ZM99.5079 11.6019C99.4703 11.5056 99.4519 11.4028 99.4539 11.2994C99.4558 11.196 99.4781 11.094 99.5194 10.9993C99.5606 10.9045 99.6201 10.8188 99.6943 10.7471C99.7686 10.6754 99.8563 10.619 99.9522 10.5813C100.048 10.5435 100.151 10.5251 100.254 10.5271C100.357 10.529 100.459 10.5514 100.553 10.5927C100.647 10.6341 100.733 10.6938 100.804 10.7683C100.876 10.8428 100.932 10.9307 100.97 11.027C103.226 16.812 103.984 23.0761 103.173 29.2345C103.146 29.4444 103.037 29.6348 102.869 29.7639C102.702 29.893 102.491 29.9502 102.282 29.9229C102.073 29.8956 101.883 29.7861 101.754 29.6184C101.625 29.4508 101.568 29.2387 101.595 29.0288C102.373 23.1418 101.649 17.1533 99.4921 11.623L99.5079 11.6019ZM102.663 11.6019C102.61 11.4092 102.632 11.2035 102.724 11.0263C102.816 10.8491 102.972 10.7135 103.16 10.6467C103.348 10.5799 103.554 10.5869 103.737 10.6662C103.92 10.7456 104.066 10.8914 104.146 11.0744C104.33 11.6019 104.509 12.1293 104.672 12.6568C105.85 16.4655 106.447 20.431 106.444 24.4189C106.445 26.0054 106.352 27.5906 106.165 29.166C106.14 29.3758 106.033 29.5671 105.867 29.6976C105.701 29.8282 105.491 29.8874 105.282 29.8622C105.072 29.837 104.882 29.7295 104.752 29.5634C104.621 29.3972 104.562 29.1859 104.587 28.9761C105.218 23.6593 104.731 18.2689 103.157 13.1526C102.994 12.6251 102.826 12.1346 102.631 11.6335L102.663 11.6019ZM27.5737 24.4137C27.566 18.8691 28.7253 13.3854 30.9759 8.32115C31.0121 8.2181 31.0693 8.12371 31.1437 8.04392C31.2182 7.96413 31.3083 7.90068 31.4084 7.85756C31.5085 7.81444 31.6165 7.7926 31.7254 7.7934C31.8343 7.79421 31.9419 7.81764 32.0414 7.86223C32.1409 7.90682 32.2301 7.97159 32.3033 8.05247C32.3766 8.13335 32.4324 8.22857 32.4671 8.33215C32.5019 8.43572 32.5149 8.54539 32.5053 8.65425C32.4957 8.76311 32.4637 8.86879 32.4114 8.96464C29.833 14.7658 28.7481 21.1236 29.2562 27.4547C29.7642 33.7858 31.849 39.8877 35.3192 45.2005C35.7434 45.8545 36.1869 46.4927 36.6496 47.1151C38.7768 49.951 41.2862 52.477 44.1059 54.6207C44.2712 54.7473 44.3796 54.9346 44.4072 55.1413C44.4348 55.3481 44.3794 55.5573 44.2532 55.7231C44.127 55.8889 43.9403 55.9976 43.7342 56.0253C43.5281 56.053 43.3195 55.9974 43.1542 55.8708C40.2287 53.637 37.6287 51.0042 35.4297 48.0487C34.9459 47.4017 34.4832 46.7371 34.0415 46.0549C29.8365 39.632 27.6007 32.1135 27.6105 24.4295L27.5737 24.4137ZM77.4491 61.7571C77.4752 61.8572 77.4814 61.9615 77.4672 62.064C77.4531 62.1665 77.4189 62.2651 77.3666 62.3543C77.3143 62.4435 77.245 62.5215 77.1626 62.5837C77.0802 62.646 76.9864 62.6913 76.8865 62.7171C73.6607 63.5517 70.3427 63.9735 67.0113 63.9724C66.8021 63.9724 66.6015 63.8891 66.4536 63.7407C66.3057 63.5923 66.2226 63.3911 66.2226 63.1812C66.2226 62.9714 66.3057 62.7702 66.4536 62.6218C66.6015 62.4734 66.8021 62.3901 67.0113 62.3901C70.2039 62.3909 73.3839 61.9886 76.4763 61.1928C76.5775 61.1616 76.6839 61.1513 76.7891 61.1625C76.8943 61.1736 76.9962 61.2061 77.0886 61.2578C77.181 61.3096 77.2619 61.3796 77.3266 61.4636C77.3913 61.5476 77.4383 61.6439 77.4649 61.7466L77.4491 61.7571ZM90.921 55.8708C90.7541 55.9778 90.5532 56.0179 90.3582 55.9831C90.1631 55.9484 89.9883 55.8413 89.8684 55.6831C89.7485 55.525 89.6923 55.3273 89.711 55.1295C89.7296 54.9317 89.8218 54.7482 89.9692 54.6155C92.6999 52.5271 95.1373 50.0788 97.2153 47.3366C97.3408 47.1702 97.5271 47.0605 97.7332 47.0319C97.9393 47.0032 98.1483 47.0578 98.3143 47.1837C98.4802 47.3096 98.5895 47.4965 98.6181 47.7032C98.6467 47.9099 98.5923 48.1196 98.4668 48.2861C96.3081 51.1392 93.7752 53.687 90.9368 55.8602L90.921 55.8708ZM104.467 8.07325C104.415 7.97704 104.385 7.87129 104.376 7.76264C104.368 7.65398 104.382 7.54475 104.418 7.4418C104.453 7.33885 104.51 7.24441 104.584 7.16438C104.657 7.08436 104.747 7.02048 104.846 6.97676C104.946 6.93304 105.053 6.91041 105.162 6.9103C105.271 6.91019 105.378 6.9326 105.478 6.97612C105.577 7.01965 105.667 7.08334 105.741 7.16322C105.815 7.2431 105.871 7.33743 105.907 7.44031C108.909 14.3883 110.016 22.0117 109.115 29.5299C109.102 29.6338 109.07 29.7342 109.019 29.8255C108.968 29.9167 108.899 29.9969 108.817 30.0616C108.735 30.1262 108.641 30.174 108.541 30.2023C108.44 30.2305 108.335 30.2386 108.232 30.2262C108.128 30.2137 108.028 30.1809 107.937 30.1296C107.846 30.0783 107.766 30.0096 107.702 29.9273C107.637 29.845 107.589 29.7508 107.561 29.65C107.533 29.5493 107.525 29.4439 107.537 29.34C108.419 22.1018 107.353 14.7589 104.451 8.07325H104.467ZM52.2617 63.4555C52.1834 63.6485 52.0323 63.8028 51.8413 63.8848C51.6503 63.9667 51.4348 63.9698 51.2415 63.8933C44.4406 61.1507 38.4628 56.6899 33.889 50.9444C33.3036 50.2165 32.7462 49.4693 32.2168 48.7027C31.4281 47.574 30.7024 46.4083 30.0241 45.2057C29.635 44.5025 29.2651 43.7992 28.9146 43.0959C28.1799 41.5958 27.5355 40.0529 26.9848 38.4755C23.9345 29.6877 23.8237 20.142 26.6693 11.2854C26.7334 11.0868 26.8736 10.9218 27.059 10.8269C27.2444 10.7319 27.4598 10.7147 27.6578 10.7791C27.8559 10.8434 28.0203 10.984 28.115 11.17C28.2096 11.356 28.2268 11.572 28.1626 11.7707C25.4258 20.2997 25.5328 29.4908 28.4676 37.9533C29.0015 39.4714 29.6212 40.9577 30.3238 42.405C30.6744 43.1082 31.0249 43.7887 31.3755 44.4462C32.0275 45.6066 32.7269 46.7301 33.4788 47.8166C33.9941 48.5551 34.5305 49.2741 35.0879 49.9739C39.4966 55.507 45.257 59.8023 51.8094 62.4428C51.9075 62.4786 51.9976 62.5336 52.0743 62.6046C52.1511 62.6756 52.213 62.7612 52.2565 62.8564C52.3001 62.9516 52.3243 63.0545 52.3279 63.1591C52.3315 63.2638 52.3143 63.3681 52.2774 63.4661L52.2617 63.4555ZM93.4345 57.6536C93.3581 57.739 93.2639 57.8066 93.1587 57.8516C93.0534 57.8966 92.9396 57.9179 92.8253 57.9141C92.7109 57.9102 92.5988 57.8813 92.4968 57.8294C92.3948 57.7774 92.3053 57.7037 92.2347 57.6133C92.1642 57.523 92.1142 57.4182 92.0883 57.3064C92.0624 57.1946 92.0612 57.0785 92.0849 56.9662C92.1085 56.8539 92.1564 56.7482 92.2251 56.6565C92.2939 56.5647 92.3818 56.4892 92.4827 56.4352C94.8927 54.5039 97.0798 52.3084 99.0031 49.8895C99.1375 49.7387 99.3244 49.6453 99.5253 49.6284C99.7262 49.6115 99.926 49.6725 100.084 49.7988C100.241 49.925 100.344 50.107 100.372 50.3074C100.4 50.5077 100.351 50.7111 100.234 50.8758C98.2329 53.3893 95.9576 55.6698 93.4503 57.6747L93.4345 57.6536ZM96.0059 59.3994C95.9264 59.4656 95.8348 59.5154 95.7362 59.546C95.6376 59.5767 95.534 59.5875 95.4312 59.578C95.3284 59.5684 95.2285 59.5386 95.1372 59.4904C95.0458 59.4421 94.9649 59.3762 94.8989 59.2966C94.833 59.2169 94.7834 59.125 94.7528 59.0261C94.7223 58.9272 94.7115 58.8232 94.721 58.7201C94.7305 58.617 94.7602 58.5168 94.8083 58.4252C94.8564 58.3336 94.9221 58.2525 95.0015 58.1863C97.1053 56.437 99.0417 54.4946 100.786 52.3843C100.922 52.2326 101.111 52.1396 101.314 52.1246C101.517 52.1096 101.718 52.1738 101.875 52.3039C102.031 52.4339 102.132 52.6197 102.155 52.8225C102.179 53.0252 102.123 53.2292 102 53.3918C100.198 55.5825 98.1961 57.6007 96.0216 59.4205L96.0059 59.3994ZM109.125 12.2348C109.097 12.1354 109.089 12.0314 109.1 11.9287C109.112 11.826 109.144 11.7267 109.194 11.6363C109.244 11.5459 109.311 11.4663 109.392 11.4021C109.473 11.3378 109.565 11.2901 109.664 11.2617C109.763 11.2333 109.867 11.2247 109.97 11.2365C110.072 11.2483 110.171 11.2803 110.261 11.3305C110.351 11.3807 110.431 11.4482 110.495 11.5291C110.559 11.6101 110.606 11.7029 110.635 11.8023C110.824 12.4616 110.997 13.1262 111.16 13.7908C112.441 19.2036 112.73 24.8048 112.012 30.3211C111.986 30.5309 111.877 30.7216 111.711 30.8512C111.544 30.9808 111.333 31.0386 111.124 31.0121C110.914 30.9855 110.724 30.8766 110.595 30.7095C110.466 30.5423 110.408 30.3305 110.435 30.1207C110.68 28.2177 110.803 26.3008 110.803 24.382C110.804 20.9396 110.404 17.5089 109.609 14.16C109.457 13.5113 109.288 12.873 109.083 12.2348H109.125ZM45.4416 63.5663C45.3373 63.7413 45.1694 63.8689 44.9731 63.922C44.7769 63.9752 44.5678 63.9497 44.3899 63.8511C39.6953 61.1345 35.5229 57.5976 32.0696 53.4076C31.5052 52.7254 30.9618 52.0222 30.4395 51.2978C29.0841 49.4438 27.8695 47.4902 26.806 45.4536C23.4175 38.9524 21.6528 31.7234 21.6633 24.3873C21.6633 22.9737 21.7317 21.5707 21.8526 20.1677C21.8947 19.751 21.9367 19.3396 21.9841 18.9229C22.0092 18.7131 22.1164 18.5218 22.282 18.3913C22.4477 18.2607 22.6583 18.2015 22.8675 18.2267C23.0767 18.2518 23.2673 18.3593 23.3975 18.5255C23.5277 18.6917 23.5867 18.9029 23.5616 19.1128C23.5125 19.5101 23.4704 19.911 23.4354 20.3154C23.3127 21.6481 23.2513 22.9983 23.2513 24.3662C23.2361 33.7114 26.2068 42.8155 31.7278 50.3431C32.2536 51.0341 32.7795 51.7092 33.3053 52.3685C36.6239 56.4219 40.6377 59.8479 45.1576 62.485C45.3381 62.5907 45.4694 62.764 45.5226 62.9667C45.5759 63.1695 45.5467 63.3851 45.4416 63.5663ZM97.2521 62.2635C97.1727 62.3366 97.0791 62.3927 96.9773 62.4281C96.8754 62.4636 96.7674 62.4778 96.6599 62.4697C96.5524 62.4617 96.4476 62.4316 96.3521 62.3813C96.2566 62.3311 96.1724 62.2617 96.1047 62.1776C96.037 62.0934 95.9872 61.9962 95.9585 61.8919C95.9297 61.7877 95.9225 61.6787 95.9374 61.5716C95.9523 61.4644 95.9889 61.3615 96.045 61.2691C96.1011 61.1768 96.1754 61.0969 96.2635 61.0345C98.575 59.1792 100.707 57.1095 102.631 54.8528C102.698 54.7742 102.78 54.7096 102.872 54.6627C102.964 54.6157 103.064 54.5874 103.167 54.5793C103.27 54.5713 103.373 54.5836 103.471 54.6156C103.569 54.6475 103.66 54.6986 103.738 54.7658C103.817 54.833 103.881 54.915 103.928 55.0071C103.975 55.0993 104.003 55.1998 104.011 55.3029C104.019 55.406 104.007 55.5097 103.975 55.608C103.943 55.7064 103.892 55.7974 103.825 55.8761C101.84 58.209 99.6396 60.3478 97.2521 62.2635ZM115.23 20.5949C115.332 21.8538 115.381 23.1284 115.378 24.4189C115.379 26.4626 115.253 28.5043 114.999 30.5321C114.973 30.7419 114.865 30.9329 114.699 31.0629C114.533 31.193 114.322 31.2516 114.113 31.2257C113.904 31.1998 113.713 31.0916 113.584 30.9249C113.454 30.7583 113.396 30.5468 113.422 30.3369C113.667 28.3738 113.789 26.3973 113.79 24.4189C113.79 23.1741 113.742 21.9434 113.648 20.7268C113.59 20.0042 113.516 19.2816 113.432 18.5695C113.295 17.5146 113.127 16.4597 112.906 15.4048C112.887 15.3033 112.887 15.199 112.907 15.0977C112.928 14.9964 112.968 14.9001 113.026 14.8144C113.083 14.7287 113.157 14.6552 113.243 14.5981C113.329 14.541 113.426 14.5015 113.527 14.4818C113.628 14.462 113.732 14.4625 113.833 14.4831C113.934 14.5037 114.03 14.544 114.115 14.6018C114.201 14.6596 114.274 14.7337 114.331 14.8199C114.388 14.9061 114.427 15.0027 114.447 15.1042C114.657 16.1872 114.832 17.2808 114.973 18.3849C115.094 19.0864 115.173 19.8301 115.23 20.5685V20.5949ZM21.0691 39.5568C21.024 39.367 21.0503 39.1671 21.1431 38.9957C21.2359 38.8242 21.3886 38.6932 21.5719 38.6277C21.7551 38.5623 21.956 38.5671 22.136 38.6413C22.3159 38.7154 22.4622 38.8536 22.5467 39.0293C24.2127 44.1171 26.7365 48.8805 30.0083 53.1122C30.0793 53.1935 30.1328 53.2884 30.1658 53.3913C30.1988 53.4941 30.2104 53.6026 30.2 53.7101C30.1895 53.8176 30.1573 53.9218 30.1051 54.0163C30.053 54.1108 29.9822 54.1937 29.897 54.2597C29.8118 54.3257 29.714 54.3735 29.6096 54.4001C29.5053 54.4268 29.3966 54.4318 29.2903 54.4147C29.1839 54.3976 29.0822 54.3589 28.9914 54.3009C28.9005 54.2429 28.8225 54.1669 28.7621 54.0775C25.3883 49.7145 22.7862 44.8029 21.0691 39.5568ZM39.7783 62.5747C39.882 62.6263 39.9731 62.7001 40.0451 62.791C40.1171 62.8819 40.1683 62.9875 40.1951 63.1005C40.2218 63.2134 40.2235 63.3309 40.1999 63.4445C40.1763 63.5582 40.1281 63.6652 40.0587 63.7581C39.9892 63.851 39.9003 63.9274 39.7981 63.9819C39.6959 64.0364 39.5831 64.0677 39.4675 64.0735C39.3519 64.0794 39.2365 64.0597 39.1293 64.0158C39.0222 63.9719 38.926 63.9048 38.8476 63.8195C36.9693 62.4677 35.1892 60.9836 33.5209 59.3783C33.3774 59.2313 33.2968 59.0339 33.2959 58.8282C33.2951 58.6224 33.3743 58.4245 33.5166 58.2763C33.6588 58.1281 33.8531 58.0413 34.0581 58.0343C34.2631 58.0274 34.4627 58.1008 34.6146 58.239C36.2277 59.7936 37.9499 61.2302 39.7678 62.5378L39.7783 62.5747ZM101.254 62.7909C101.177 62.8602 101.088 62.9136 100.99 62.9482C100.893 62.9828 100.79 62.9978 100.687 62.9924C100.584 62.987 100.483 62.9613 100.39 62.9168C100.297 62.8723 100.213 62.8098 100.144 62.7329C100.075 62.656 100.022 62.5663 99.9874 62.4687C99.9529 62.3712 99.9379 62.2678 99.9433 62.1644C99.9487 62.0611 99.9743 61.9598 100.019 61.8664C100.063 61.773 100.125 61.6893 100.202 61.62C101.632 60.3313 102.989 58.963 104.267 57.5217C104.406 57.365 104.602 57.2703 104.811 57.2585C105.02 57.2466 105.225 57.3185 105.381 57.4584C105.538 57.5983 105.632 57.7947 105.644 58.0044C105.656 58.2141 105.584 58.4199 105.445 58.5766C104.128 60.0512 102.729 61.4495 101.254 62.7646V62.7909ZM118.301 22.1773C118.338 22.9315 118.354 23.6911 118.354 24.4506C118.354 26.1859 118.264 27.9054 118.101 29.6038C118.091 29.7077 118.06 29.8085 118.011 29.9005C117.962 29.9925 117.895 30.0739 117.815 30.14C117.734 30.2062 117.641 30.2557 117.542 30.2859C117.442 30.316 117.337 30.3262 117.234 30.3158C117.13 30.3054 117.03 30.2747 116.938 30.2253C116.846 30.176 116.765 30.109 116.699 30.0282C116.633 29.9473 116.584 29.8543 116.554 29.7543C116.524 29.6544 116.514 29.5494 116.524 29.4455C116.685 27.8034 116.768 26.1384 116.771 24.4506C116.771 23.7121 116.771 22.979 116.724 22.2458C116.719 22.1419 116.735 22.0382 116.771 21.9405C116.806 21.8427 116.861 21.753 116.931 21.6763C117.001 21.5997 117.085 21.5376 117.179 21.4937C117.273 21.4498 117.375 21.4249 117.478 21.4204C117.582 21.4159 117.685 21.4319 117.783 21.4675C117.88 21.5031 117.97 21.5576 118.046 21.6279C118.122 21.6981 118.184 21.7828 118.228 21.8771C118.272 21.9714 118.297 22.0734 118.301 22.1773ZM20.496 46.2026C20.4081 46.0131 20.3989 45.7963 20.4704 45.5999C20.5419 45.4036 20.6882 45.2438 20.8772 45.1556C21.0662 45.0675 21.2823 45.0583 21.478 45.13C21.6738 45.2017 21.8331 45.3485 21.921 45.538C23.5392 49.0106 25.5506 52.2848 27.9155 55.2959C28.0372 55.4615 28.0898 55.6682 28.0621 55.8721C28.0344 56.076 27.9286 56.261 27.7672 56.388C27.6057 56.5149 27.4014 56.5738 27.1974 56.5521C26.9934 56.5304 26.8058 56.4298 26.6745 56.2717C24.2322 53.1492 22.1573 49.7546 20.4907 46.1552L20.496 46.2026ZM108.242 59.9163C107.075 61.2807 105.848 62.5835 104.561 63.8247C104.489 63.9057 104.4 63.9707 104.301 64.0158C104.203 64.0609 104.096 64.085 103.987 64.0868C103.879 64.0885 103.771 64.0677 103.671 64.0258C103.571 63.9839 103.48 63.9217 103.405 63.8431C103.33 63.7645 103.272 63.6713 103.235 63.5691C103.197 63.467 103.181 63.3582 103.187 63.2495C103.194 63.1409 103.222 63.0347 103.271 62.9376C103.32 62.8406 103.389 62.7547 103.473 62.6855C104.728 61.4758 105.923 60.2099 107.059 58.8878C107.196 58.7307 107.389 58.6338 107.596 58.6181C107.804 58.6023 108.009 58.6688 108.168 58.8034C108.315 58.9369 108.405 59.1209 108.422 59.3185C108.438 59.5161 108.38 59.7127 108.258 59.8689L108.242 59.9163ZM121.33 24.4506C121.33 24.8251 121.33 25.1996 121.33 25.574C121.33 26.4496 121.272 27.3199 121.214 28.1849C121.2 28.3948 121.103 28.5902 120.944 28.7282C120.786 28.8661 120.58 28.9354 120.37 28.9207C120.161 28.906 119.966 28.8086 119.829 28.6498C119.691 28.4911 119.622 28.284 119.637 28.0742C119.696 27.2373 119.733 26.3933 119.747 25.5424C119.747 25.1785 119.747 24.8145 119.747 24.4506C119.747 24.2407 119.83 24.0395 119.978 23.8911C120.126 23.7428 120.327 23.6594 120.536 23.6594C120.745 23.6594 120.946 23.7428 121.094 23.8911C121.242 24.0395 121.325 24.2407 121.325 24.4506H121.33ZM30.4342 62.4586C30.5085 62.5303 30.5679 62.616 30.6091 62.7107C30.6504 62.8054 30.6726 62.9074 30.6745 63.0107C30.6765 63.1141 30.6581 63.2168 30.6205 63.313C30.5829 63.4092 30.5267 63.4971 30.4553 63.5716C30.3838 63.646 30.2984 63.7056 30.204 63.747C30.1095 63.7883 30.0079 63.8106 29.9049 63.8126C29.8018 63.8146 29.6994 63.7961 29.6035 63.7584C29.5076 63.7207 29.42 63.6644 29.3458 63.5927C28.5412 62.8173 27.7683 62.0103 27.0111 61.1928C26.5308 60.6688 26.0628 60.1414 25.6071 59.6104C23.0687 56.607 20.8614 53.3371 19.0236 49.8579C18.9367 49.6736 18.9241 49.4629 18.9883 49.2695C19.0524 49.0762 19.1885 48.9151 19.3682 48.8199C19.5478 48.7247 19.7571 48.7027 19.9525 48.7585C20.1479 48.8143 20.3144 48.9436 20.4171 49.1194C22.1963 52.5077 24.3386 55.6912 26.806 58.6135C27.2477 59.141 27.7052 59.6684 28.1732 60.1695C28.9023 60.9712 29.656 61.7483 30.4342 62.5008V62.4586ZM111.665 60.428C110.761 61.5567 109.809 62.6538 108.82 63.7087C108.756 63.799 108.673 63.8746 108.577 63.9304C108.481 63.9863 108.375 64.021 108.264 64.0325C108.154 64.0439 108.043 64.0318 107.938 63.9969C107.832 63.962 107.736 63.905 107.654 63.8299C107.572 63.7547 107.508 63.6631 107.464 63.5609C107.42 63.4588 107.398 63.3485 107.4 63.2373C107.402 63.1262 107.428 63.0167 107.475 62.9161C107.522 62.8155 107.59 62.7261 107.674 62.6538C108.635 61.627 109.557 60.5616 110.44 59.4575C110.571 59.2952 110.761 59.1918 110.968 59.17C111.175 59.1483 111.382 59.2099 111.544 59.3414C111.706 59.4729 111.809 59.6635 111.831 59.8712C111.852 60.0789 111.791 60.2868 111.66 60.4491L111.665 60.428ZM26.4274 62.6327C26.5116 62.705 26.5795 62.7944 26.6267 62.895C26.6739 62.9956 26.6993 63.1051 26.7012 63.2162C26.7031 63.3274 26.6815 63.4377 26.6377 63.5398C26.594 63.642 26.5291 63.7336 26.4475 63.8088C26.3658 63.8839 26.2692 63.9409 26.164 63.9758C26.0587 64.0107 25.9473 64.0229 25.8371 64.0114C25.7268 63.9999 25.6203 63.9652 25.5244 63.9093C25.4286 63.8535 25.3456 63.778 25.2811 63.6876C22.1599 60.356 19.4466 56.6623 17.199 52.685C17.1098 52.5035 17.0933 52.2947 17.1528 52.1014C17.2124 51.9081 17.3436 51.745 17.5193 51.6457C17.6951 51.5464 17.9021 51.5185 18.0978 51.5675C18.2934 51.6166 18.4629 51.739 18.5714 51.9096C20.7601 55.7753 23.3971 59.3676 26.4274 62.6116V62.6327ZM114.473 60.4016C114.555 60.4646 114.623 60.5432 114.674 60.6329C114.726 60.7226 114.758 60.8216 114.771 60.9241C114.784 61.0267 114.776 61.1307 114.748 61.2303C114.721 61.3298 114.674 61.4228 114.61 61.504C114.01 62.2776 113.392 63.0371 112.754 63.7825C112.614 63.9413 112.418 64.038 112.207 64.0514C111.997 64.0647 111.789 63.9936 111.631 63.8538C111.473 63.7139 111.376 63.5166 111.363 63.3054C111.35 63.0943 111.421 62.8864 111.56 62.7276C112.181 62.0068 112.783 61.2684 113.369 60.5124C113.5 60.3581 113.685 60.2605 113.886 60.2399C114.087 60.2193 114.288 60.2772 114.447 60.4016H114.473ZM22.2943 62.4586C22.4139 62.6198 22.468 62.8206 22.4454 63.0203C22.4228 63.2199 22.3254 63.4035 22.1728 63.5337C22.0202 63.6639 21.824 63.731 21.6239 63.7214C21.4238 63.7118 21.2349 63.6261 21.0954 63.4819C19.44 61.5242 17.9102 59.463 16.5154 57.3107C16.4417 57.2262 16.3868 57.1268 16.3543 57.0193C16.3219 56.9118 16.3126 56.7986 16.3272 56.6872C16.3417 56.5758 16.3798 56.4688 16.4388 56.3733C16.4978 56.2778 16.5763 56.196 16.6693 56.1334C16.7622 56.0707 16.8674 56.0286 16.9778 56.0099C17.0883 55.9912 17.2014 55.9963 17.3097 56.0248C17.418 56.0534 17.519 56.1047 17.606 56.1755C17.693 56.2462 17.764 56.3348 17.8142 56.4352C19.1717 58.5308 20.6611 60.5374 22.2733 62.4428L22.2943 62.4586Z" fill="url(#paint0_linear_1_13)"/>
<path d="M20.7957 94.0792V91.1361H28.7358C29.1785 91.1394 29.6111 91.0025 29.9717 90.7449C30.3324 90.4873 30.6028 90.1222 30.7445 89.7014C30.8546 89.3825 30.8881 89.042 30.8424 88.7076C30.7967 88.3732 30.673 88.0543 30.4815 87.7769C30.2899 87.4994 30.0358 87.2712 29.7398 87.1107C29.4438 86.9502 29.1142 86.862 28.7778 86.8532C27.8208 86.8532 26.0383 86.8532 25.097 86.8532C24.3439 86.8411 23.6039 86.6533 22.9358 86.3044C22.2677 85.9556 21.6898 85.4554 21.2479 84.8436C20.7844 84.2324 20.4648 83.524 20.313 82.7713C20.1612 82.0187 20.1812 81.2413 20.3714 80.4975C20.5616 79.7537 20.9171 79.0627 21.4113 78.4763C21.9055 77.8898 22.5255 77.4231 23.225 77.1112C23.8574 76.8299 24.542 76.6861 25.2337 76.6892H32.8531V79.6165H25.3547C24.9151 79.5947 24.4798 79.7117 24.11 79.9511C23.7402 80.1905 23.4546 80.5402 23.2934 80.951C23.164 81.2665 23.1128 81.6089 23.1442 81.9486C23.1757 82.2884 23.2888 82.6154 23.4739 82.9017C23.659 83.1879 23.9105 83.4249 24.207 83.5923C24.5034 83.7596 24.8359 83.8523 25.1759 83.8625C26.0646 83.8625 27.7735 83.8625 28.6622 83.8625C29.3652 83.8571 30.0617 83.9976 30.7079 84.2753C31.3541 84.553 31.936 84.9618 32.4171 85.4761C32.8981 85.9903 33.2679 86.5988 33.5031 87.2634C33.7383 87.9279 33.8339 88.6341 33.7838 89.3374C33.712 90.3809 33.3195 91.3765 32.6603 92.1869C32.0011 92.9974 31.1077 93.583 30.103 93.863C29.7119 93.9795 29.3067 94.0416 28.8988 94.0476L20.7957 94.0792Z" fill="white"/>
<path d="M51.1942 85.3764C51.2466 86.6381 50.9216 87.8867 50.2609 88.9617C49.6002 90.0367 48.6341 90.8888 47.4867 91.4086C46.3393 91.9283 45.0631 92.0919 43.8223 91.8783C42.5814 91.6646 41.4327 91.0836 40.5237 90.2098C39.6147 89.3361 38.9871 88.2095 38.7216 86.9751C38.456 85.7407 38.5647 84.4548 39.0336 83.2828C39.5025 82.1108 40.3101 81.1063 41.3527 80.3985C42.3953 79.6906 43.6252 79.3118 44.8842 79.3107C45.6959 79.2918 46.5035 79.4339 47.2604 79.7287C48.0173 80.0236 48.7087 80.4655 49.295 81.0291C49.8813 81.5926 50.3508 82.2668 50.6767 83.0128C51.0026 83.7588 51.1785 84.562 51.1942 85.3764ZM44.8842 76.357C43.1168 76.4047 41.4027 76.9739 39.9562 77.9935C38.5097 79.0132 37.3949 80.4379 36.7513 82.0896C36.1077 83.7413 35.9638 85.5467 36.3375 87.28C36.7113 89.0133 37.5862 90.5976 38.8528 91.8348C40.1195 93.0721 41.7216 93.9073 43.4589 94.2361C45.1962 94.5649 46.9916 94.3727 48.6206 93.6835C50.2496 92.9943 51.6399 91.8387 52.6176 90.3611C53.5954 88.8836 54.1172 87.1498 54.1178 85.3764C54.0859 82.9557 53.0981 80.6466 51.3709 78.9557C49.6438 77.2648 47.3185 76.3302 44.9052 76.357H44.8842Z" fill="white"/>
<path d="M118.643 85.735L122.555 76.6629H125.847L133.356 94.0687H130.08L128.597 90.4135C125.668 92.2754 122.76 92.3229 119.842 90.3713L118.333 94.0635H115.052L117.423 88.5358C116.797 87.7921 114.936 86.9534 113.637 86.8321H112.911V90.3766C112.911 90.4981 112.877 90.617 112.812 90.7194C111.782 92.0502 110.419 93.0839 108.863 93.7154C106.784 94.5461 104.477 94.6006 102.361 93.8687C100.246 93.1369 98.4625 91.6674 97.3362 89.7278C96.3266 87.9262 95.9753 85.8277 96.343 83.7941C96.7106 81.7605 97.7741 79.9194 99.3502 78.5881C100.759 77.3758 102.504 76.6248 104.351 76.4361C105.787 76.2631 107.243 76.4323 108.602 76.9299C109.961 77.4276 111.183 78.2396 112.17 79.3001C112.192 79.3224 112.212 79.3472 112.228 79.374C112.244 79.3982 112.257 79.4249 112.265 79.4531L110.161 81.3994C109.872 81.1409 109.635 80.8719 109.336 80.6662C108.628 80.1051 107.807 79.7046 106.93 79.4924C106.054 79.2802 105.141 79.2614 104.256 79.4373C103.194 79.5954 102.193 80.0379 101.361 80.7183C100.528 81.3987 99.8931 82.2918 99.5237 83.3035C99.0447 84.5573 99.0067 85.9376 99.416 87.216C99.8252 88.4945 100.657 89.5946 101.774 90.3344C102.983 91.1549 104.433 91.542 105.888 91.4328C107.343 91.3237 108.72 90.7248 109.793 89.7331L109.972 89.5801V86.8585H106.249V83.8626H113.132C115.011 83.8933 116.839 84.4765 118.391 85.5399L118.643 85.735ZM127.356 87.5811C126.304 85.1654 125.267 82.7514 124.243 80.3392H124.185L121.03 87.56C123.123 89.3744 125.61 89.1793 127.356 87.5811Z" fill="white"/>
<path d="M71.9174 94.0687H68.3049L60.8012 76.6682H63.9983L70.0874 90.7511H70.1611L76.224 76.6682H79.421L71.9174 94.0687Z" fill="white"/>
<path d="M84.7162 91.1309V86.8321L92.4512 86.8374V83.8837H84.7162V79.5955H94.0498V76.6682H81.6138V94.074H94.4494V91.1309H84.7162Z" fill="white"/>
<path d="M15.5373 85.3764C15.5898 86.6381 15.2648 87.8867 14.6041 88.9617C13.9434 90.0367 12.9772 90.8888 11.8298 91.4086C10.6824 91.9283 9.40624 92.0919 8.16541 91.8783C6.92458 91.6646 5.77582 91.0836 4.86686 90.2098C3.9579 89.3361 3.33029 88.2095 3.06475 86.9751C2.7992 85.7407 2.90784 84.4548 3.37672 83.2828C3.8456 82.1108 4.65327 81.1063 5.69588 80.3985C6.73848 79.6906 7.96835 79.3118 9.22732 79.3107C10.0391 79.2918 10.8466 79.4339 11.6035 79.7287C12.3605 80.0236 13.0519 80.4655 13.6381 81.0291C14.2244 81.5926 14.6939 82.2668 15.0199 83.0128C15.3458 83.7588 15.5216 84.562 15.5373 85.3764ZM9.22732 76.357C7.45999 76.4047 5.7459 76.9739 4.29937 77.9935C2.85284 79.0132 1.73806 80.4379 1.09444 82.0896C0.450812 83.7413 0.306892 85.5467 0.680678 87.28C1.05446 89.0133 1.92937 90.5976 3.196 91.8348C4.46262 93.0721 6.06474 93.9073 7.80205 94.2361C9.53937 94.5649 11.3348 94.3727 12.9637 93.6835C14.5927 92.9943 15.983 91.8387 16.9608 90.3611C17.9385 88.8836 18.4603 87.1498 18.461 85.3764C18.4291 82.9557 17.4412 80.6466 15.7141 78.9557C13.9869 77.2648 11.6616 76.3302 9.24834 76.357H9.22732Z" fill="white"/>
<path d="M132.509 76.6629V77.0057H131.579V79.4531H131.2V77.0057H130.264V76.6787L132.509 76.6629Z" fill="white"/>
<path d="M132.809 76.6629H133.335L134.129 79.01L134.918 76.6629H135.444V79.4372H135.086V77.5332C135.086 77.4013 135.086 77.2589 135.086 77.1112L134.297 79.4531H133.924L133.125 77.1112V77.1956C133.125 77.2642 133.125 77.3696 133.125 77.5068C133.125 77.6439 133.125 77.7494 133.125 77.8127V79.4531H132.767L132.809 76.6629Z" fill="white"/>
<defs>
<linearGradient id="paint0_linear_1_13" x1="0.531924" y1="47.5133" x2="135.437" y2="47.5133" gradientUnits="userSpaceOnUse">
<stop stop-color="#352D29" stop-opacity="0.6"/>
<stop offset="0.9" stop-color="#352D29" stop-opacity="0"/>
</linearGradient>
</defs>
</svg>
