<svg xmlns="http://www.w3.org/2000/svg" width="120.32" height="36.589" viewBox="0 0 120.32 36.589"><title>Tethr</title><g fill="#ffffff"><path d="M10.043 36.59a.69.69 0 0 1-.61-.674V7.343c0-.214-.034-.2-.248-.2H.537A.618.618 0 0 1 0 6.486V.536A.507.507 0 0 1 .537 0H26.07a.49.49 0 0 1 .515.535v5.95a.6.6 0 0 1-.514.66h-8.647c-.215 0-.272-.016-.272.2v28.57a.67.67 0 0 1-.585.674h-6.522z"/><path d="M21.155 29.16a18.7 18.7 0 0 1-.91-6.16 13.742 13.742 0 0 1 .857-5.36c1.5-4.664 5.342-7.345 10.864-7.345 5.735 0 9.417 2.734 10.918 7.29.535 1.716.858 2.742.858 7.137a.53.53 0 0 1-.59.544H28.016a.28.28 0 0 0-.322.314 5.725 5.725 0 0 0 .322 1.444c.7 2.25 2.394 3.43 5.074 3.43a7.65 7.65 0 0 0 5.665-2.307.48.48 0 0 1 .75 0l3.54 3.324a.483.483 0 0 1 .053.752 14.148 14.148 0 0 1-10.758 4.336c-5.897 0-9.685-2.733-11.185-7.398zm14.867-7.9a.34.34 0 0 0 .32-.39 6.7 6.7 0 0 0-.267-1.967 3.94 3.94 0 0 0-4.056-2.858 3.92 3.92 0 0 0-4.057 2.832 6.88 6.88 0 0 0-.27 2 .336.336 0 0 0 .323.387h8.005zM54.78 36.59c-6 0-8.186-2.82-8.186-8.77V16.314a.33.33 0 0 0-.392-.306h-1.608a.55.55 0 0 1-.573-.552V10.72a.463.463 0 0 1 .574-.43H46.2a.427.427 0 0 0 .392-.427V2.536A.455.455 0 0 1 47.06 2h6.38a.548.548 0 0 1 .587.535v7.328c0 .214.056.428.27.428h3.323c.322 0 .408.11.408.43v4.736c0 .32-.086.552-.408.552H54.3c-.214 0-.27.09-.27.306V27.5c0 1.93.593 2.516 2.308 2.516h1.282c.322 0 .408.27.408.594v5.307a.548.548 0 0 1-.408.674h-2.84zm21.296 0a.692.692 0 0 1-.61-.674V21.3c0-2.84-1.3-4.717-3.976-4.717-2.573 0-4.03 1.876-4.03 4.717v14.616a.642.642 0 0 1-.55.673h-6.433a.506.506 0 0 1-.448-.388V.535A.443.443 0 0 1 60.476 0h6.433a.518.518 0 0 1 .55.535V13.15h.04c1.18-1.716 3.446-2.95 6.77-2.95 5.736 0 8.343 3.97 8.343 9.652v16.064a.75.75 0 0 1-.674.673h-5.864zm8.999 0a.51.51 0 0 1-.54-.54V11.283a.51.51 0 0 1 .54-.54h6.193a.51.51 0 0 1 .54.54V13.5h.054c1.242-2.106 3.617-3.06 6.8-3.06a7.25 7.25 0 0 1 4.592 1.56.53.53 0 0 1 .162.756l-3.024 5.507a.52.52 0 0 1-.756.108 6.794 6.794 0 0 0-3.78-1.47c-2.806.108-4.048 2.16-4.048 5.67v13.48a.51.51 0 0 1-.54.54h-6.193zm20.153-28.573a7.516 7.516 0 0 1 .928-3.672 6.9 6.9 0 0 1 2.572-2.668 6.954 6.954 0 0 1 7.1 0 6.9 6.9 0 0 1 2.572 2.668 7.516 7.516 0 0 1 .928 3.672 7.5 7.5 0 0 1-.943 3.7 6.988 6.988 0 0 1-2.577 2.668 6.919 6.919 0 0 1-7.08-.01 6.992 6.992 0 0 1-2.567-2.673 7.507 7.507 0 0 1-.933-3.685zm12.878 0a6.323 6.323 0 0 0-.745-3.023 5.774 5.774 0 0 0-2.1-2.234 5.571 5.571 0 0 0-2.979-.838 5.651 5.651 0 0 0-2.934.8 5.725 5.725 0 0 0-2.13 2.215 6.29 6.29 0 0 0-.774 3.077 6.32 6.32 0 0 0 .77 3.077 5.8 5.8 0 0 0 2.125 2.23 5.681 5.681 0 0 0 5.9-.015 5.773 5.773 0 0 0 2.12-2.244 6.365 6.365 0 0 0 .747-3.05zm-7.258.75v3.3h-1.5V3.738h2.79a3.764 3.764 0 0 1 2.363.67 2.271 2.271 0 0 1 .864 1.9 1.871 1.871 0 0 1-1.122 1.7 1.743 1.743 0 0 1 .849.847 3.3 3.3 0 0 1 .243 1.347q0 .8.035 1.136a1.872 1.872 0 0 0 .134.558v.157h-1.539a7.661 7.661 0 0 1-.129-1.9 1.476 1.476 0 0 0-.328-1.072 1.507 1.507 0 0 0-1.092-.328h-1.569zm0-1.312h1.352a2.135 2.135 0 0 0 1.207-.313.95.95 0 0 0 .472-.822 1.193 1.193 0 0 0-.353-.974 2.113 2.113 0 0 0-1.276-.3h-1.4v2.403z"/></g></svg>
