<?xml version="1.0" encoding="UTF-8"?>
<svg width="115px" height="65px" viewBox="0 0 115 65" version="1.1" xmlns="http://www.w3.org/2000/svg" xmlns:xlink="http://www.w3.org/1999/xlink">
    <!-- Generator: Sketch 48 (47235) - http://www.bohemiancoding.com/sketch -->
    <title>Development</title>
    <desc>Created with Sketch.</desc>
    <defs></defs>
    <g id="Page-3" stroke="none" stroke-width="1" fill="none" fill-rule="evenodd">
        <g id="Development" transform="translate(1.000000, 2.000000)">
            <g id="Group-9">
                <g id="Group-7" transform="translate(18.804543, 0.000000)">
                    <g id="Group-10">
                        <g id="device-gfroup-copy-3" transform="translate(1.021574, 1.000237)">
                            <g id="Laptop">
                                <path d="M3.0647228,42.0099432 L82.7475156,42.0099432 C81.6766664,45.3440657 80.3110111,47.0111269 78.65055,47.0111269 C57.1426874,47.0111269 29.2543355,47.0111269 6.75713626,47.0111269 C4.7704543,47.0111269 3.53964981,45.3440657 3.0647228,42.0099432 Z" id="Shadow" fill="#D3DEE5"></path>
                                <path d="M0,41.0097064 L79.6827928,41.0097064 C78.6119436,43.6770044 77.2462883,45.0106534 75.5858272,45.0106534 C54.0779646,45.0106534 26.1896127,45.0106534 3.69241346,45.0106534 C1.7057315,45.0106534 0.47492701,43.6770044 0,41.0097064 Z" id="Keyboard" stroke="#000000" stroke-width="2"></path>
                                <path d="M8.10787134,0 L71.5749215,4.4408921e-16 C73.2317758,-7.21818092e-15 74.5749215,1.34314575 74.5749215,3 L74.5749215,41.0097064 L5.10787134,41.0097064 L5.10787134,3 C5.10787134,1.34314575 6.45101709,7.48448398e-16 8.10787134,4.4408921e-16 Z" id="Screen" stroke="#000000" stroke-width="2"></path>
                            </g>
                            <g id="Tablet-Copy" transform="translate(46.992416, 6.001420)">
                                <rect id="Rectangle-2-Copy-4" fill="#FFFFFF" x="0" y="0" width="46.9924163" height="41.0097064" rx="3"></rect>
                                <rect id="Rectangle-2-Copy-5" fill="#D3DEE5" x="5.10787134" y="4.00094697" width="28.6040795" height="37.0087595" rx="3"></rect>
                                <ellipse id="Oval-Copy" fill="#D3DEE5" cx="16.8559754" cy="36.5086411" rx="1.5323614" ry="1.50035511"></ellipse>
                                <rect id="Rectangle-2" stroke="#000000" stroke-width="2" stroke-linecap="round" stroke-linejoin="bevel" x="3.0647228" y="2.00047348" width="28.6040795" height="37.0087595" rx="3"></rect>
                                <ellipse id="Oval" stroke="#000000" stroke-width="1.5" cx="16.8559754" cy="34.5081676" rx="1.5323614" ry="1.50035511"></ellipse>
                            </g>
                            <g id="Group-2" transform="translate(71.510199, 13.003078)">
                                <g id="Phone">
                                    <rect id="Rectangle-2-Copy-3" fill="#FFFFFF" x="0" y="0" width="18.3883368" height="34.0080492" rx="3"></rect>
                                    <rect id="Rectangle-2-Copy" fill="#D3DEE5" x="4.08629707" y="4.00094697" width="18.3883368" height="30.0071023" rx="3"></rect>
                                    <rect id="Rectangle-2" stroke="#000000" stroke-width="2" stroke-linecap="round" stroke-linejoin="bevel" x="2.04314853" y="2.00047348" width="18.3883368" height="30.0071023" rx="3"></rect>
                                    <ellipse id="Oval" stroke="#000000" stroke-width="1.5" cx="11.7481041" cy="27.5065104" rx="1.5323614" ry="1.50035511"></ellipse>
                                </g>
                            </g>
                        </g>
                        <rect id="Rectangle-5" fill-opacity="0.75" fill="#FFFFFF" x="0" y="0" width="95.0064068" height="48.0113636"></rect>
                    </g>
                    <g id="Group-8" transform="translate(21.414653, 25.005919)">
                        <g id="Group-7-Copy" transform="translate(0.000000, -0.000000)">
                            <path d="M19.6710526,38.4637117 C29.9779457,38.4637117 38.3333333,33.1073232 38.3333333,21.328125 C38.3333333,9.54892682 29.9779457,0 19.6710526,0 C9.3641596,0 1.00877193,9.54892682 1.00877193,21.328125 C1.00877193,33.1073232 9.3641596,38.4637117 19.6710526,38.4637117 Z" id="Path-Copy-3" fill="#FFFFFF"></path>
                            <ellipse id="Oval-2-Copy" fill="#FFFFFF" cx="18.7872994" cy="21.8919462" rx="16.8559754" ry="16.9165039"></ellipse>
                            <ellipse id="Path" fill="#D3DEE5" cx="19.7788274" cy="21.8919462" rx="16.8559754" ry="16.9165039"></ellipse>
                            <ellipse id="Oval-2" stroke="#000000" stroke-width="2" cx="17.7957715" cy="19.9017693" rx="16.8559754" ry="16.9165039"></ellipse>
                        </g>
                        <path d="M11.9636163,23.8212472 L11.9636163,21.9809188 C11.9636163,20.8711025 11.3477604,20.5901364 10.8550757,20.6041847 L10.8550757,19.1993539 C11.298492,19.1993539 11.9636163,18.9043395 11.9636163,17.6540401 L11.9636163,16.0806296 C11.9636163,14.6477022 12.456301,13.9312385 13.8974038,13.9312385 L14.8211876,13.9312385 L14.8211876,15.4484557 L14.2546002,15.4484557 C13.6017929,15.4484557 13.3800848,15.7153736 13.3800848,16.6425619 L13.3800848,18.2862139 C13.3800848,19.1993539 13.0105713,19.8034311 12.456301,19.887721 C12.9736199,19.9579625 13.3800848,20.4075084 13.3800848,21.4892281 L13.3800848,23.1609767 C13.3800848,24.0179235 13.6387443,24.3691312 14.3285029,24.3691312 L14.8211876,24.3691312 L14.8211876,25.8723001 L13.8111839,25.8723001 C12.6287407,25.8723001 11.9636163,25.3244161 11.9636163,23.8212472 Z M23.6279267,21.9809188 L23.6279267,23.8212472 C23.6279267,25.3244161 22.9628023,25.8723001 21.7926761,25.8723001 L20.7703554,25.8723001 L20.7703554,24.3691312 L21.2630401,24.3691312 C21.9527987,24.3691312 22.2114581,24.0179235 22.2114581,23.1609767 L22.2114581,21.4892281 C22.2114581,20.4075084 22.617923,19.9579625 23.135242,19.887721 C22.5809717,19.8034311 22.2114581,19.1993539 22.2114581,18.2862139 L22.2114581,16.6425619 C22.2114581,15.7153736 21.98975,15.4484557 21.3369428,15.4484557 L20.7703554,15.4484557 L20.7703554,13.9312385 L21.6941392,13.9312385 C23.1475591,13.9312385 23.6279267,14.6477022 23.6279267,16.0806296 L23.6279267,17.6540401 C23.6279267,18.9043395 24.293051,19.1993539 24.7364672,19.1993539 L24.7364672,20.6041847 C24.2437825,20.5901364 23.6279267,20.8711025 23.6279267,21.9809188 Z" id="{…}" fill="#000000"></path>
                    </g>
                </g>
                <g id="Group-7-Copy-3" transform="translate(0.000000, 25.196461)">
                    <path d="M16.6553184,34.8661029 C28.1550396,34.8661029 37.4774056,30.9459648 37.4774056,20.2293072 C37.4774056,9.51264965 28.1550396,0.825082164 16.6553184,0.825082164 C5.15559711,0.825082164 1.48592735,9.51264965 1.48592735,20.2293072 C1.48592735,30.9459648 5.15559711,34.8661029 16.6553184,34.8661029 Z" id="Path-Copy" fill="#FFFFFF"></path>
                    <ellipse id="Oval-2-Copy" fill="#FFFFFF" cx="18.8045434" cy="22.2441789" rx="16.7920059" ry="16.5848078"></ellipse>
                    <ellipse id="Path" fill="#D3DEE5" cx="19.4762236" cy="22.2441789" rx="16.7920059" ry="16.5848078"></ellipse>
                    <ellipse id="Oval-2" stroke="#000000" stroke-width="2" cx="17.4611829" cy="20.254002" rx="16.7920059" ry="16.5848078"></ellipse>
                    <g id="Group-6" transform="translate(10.744381, 14.283471)" stroke="#000000" stroke-width="2">
                        <polyline id="Path-7" points="4.03008141 1.32678462 2.27373675e-13 6.03075925 4.03008141 10.614277"></polyline>
                        <polyline id="Path-7-Copy" transform="translate(14.105285, 5.970531) scale(-1, 1) translate(-14.105285, -5.970531) " points="16.1203256 1.32678462 12.0902442 6.03075925 16.1203256 10.614277"></polyline>
                        <path d="M9.06768317,0.331696155 L7.23958924,11.4638954" id="Path-8"></path>
                    </g>
                </g>
            </g>
        </g>
    </g>
</svg>