<?xml version="1.0" encoding="UTF-8"?>
<svg width="242px" height="67px" viewBox="0 0 242 67" version="1.1" xmlns="http://www.w3.org/2000/svg" xmlns:xlink="http://www.w3.org/1999/xlink">
    <!-- Generator: Sketch 48 (47235) - http://www.bohemiancoding.com/sketch -->
    <title>Flying_J_Logo</title>
    <desc>Created with Sketch.</desc>
    <defs></defs>
    <g id="Page-1" stroke="none" stroke-width="1" fill="none" fill-rule="evenodd">
        <g id="Flying_J_Logo" fill="#000000" fill-rule="nonzero">
            <path d="M236.83979,42.55476 L237.40244,42.55476 C238.0537,42.55476 238.60092,42.32354 238.60092,41.71082 C238.60092,41.28306 238.29263,40.8476 237.40244,40.8476 C237.15964,40.8476 236.98239,40.8708 236.83979,40.886 L236.83979,42.55464 L236.83979,42.55476 Z M236.83979,45.27927 L236.06138,45.27927 L236.06138,40.36591 C236.466,40.30051 236.85907,40.25037 237.44869,40.25037 C238.19243,40.25037 238.67798,40.40834 238.97084,40.61259 C239.26758,40.83227 239.42944,41.16367 239.42944,41.63381 C239.42944,42.27351 238.99012,42.67428 238.46603,42.82843 L238.46603,42.86683 C238.89763,42.94783 239.19822,43.33698 239.28685,44.0576 C239.40239,44.82062 239.52192,45.1212 239.6067,45.2792 L238.77433,45.2792 C238.66249,45.12123 238.55083,44.67032 238.44677,44.02677 C238.32725,43.39863 238.01516,43.15199 237.39087,43.15199 L236.83979,43.15199 L236.83979,45.2792 L236.83979,45.27927 Z M237.66832,38.994 C235.72997,38.994 234.14612,40.65491 234.14612,42.71661 C234.14612,44.80141 235.72997,46.44691 237.6876,46.44691 C239.64526,46.47011 241.20596,44.80141 241.20596,42.73202 C241.20596,40.65491 239.64526,38.994 237.6876,38.994 L237.6683,38.994 L237.66832,38.994 Z M237.68762,38.3042 C240.08841,38.3042 242.01137,40.2657 242.01137,42.71661 C242.01137,45.19449 240.08841,47.13672 237.66834,47.13672 C235.25596,47.13672 233.29448,45.19449 233.29448,42.71661 C233.29448,40.2657 235.25596,38.3042 237.66834,38.3042 L237.68764,38.3042 L237.68762,38.3042 Z M33.83097,37.06352 C33.83097,38.70131 32.50146,40.03852 30.85981,40.03852 L20.49358,40.03852 L20.49358,7.907 L30.85981,7.907 C32.50146,7.907 33.83097,9.23651 33.83097,10.87814 L33.83097,37.06352 Z M47.05659,0.97818 L0,0.97818 L0,66.17379 L20.49358,66.17379 L20.49358,46.9943 L47.05659,46.9943 C51.07978,46.9943 54.33226,43.73412 54.33226,39.71094 L54.33226,8.09584 C54.33226,4.2769 51.02198,0.97818 47.05659,0.97818 Z M228.75112,12.35178 L203.98388,12.35178 L203.98388,0.97972 L183.22055,0.97972 L183.22055,12.35178 L176.12602,12.35178 L176.12602,19.60429 L183.20514,19.60429 L183.20514,39.70865 C183.20514,43.73183 186.4653,46.99201 190.48848,46.99201 L192.51933,46.99201 C192.51933,46.99201 192.52333,46.99601 192.52333,46.99601 L228.75125,46.99601 L228.75125,25.71245 L209.69891,25.71245 L209.69891,39.93618 L207.24415,39.93618 C205.60252,39.93618 204.27302,38.60667 204.27302,36.96502 L204.27302,19.60445 L228.75124,19.60445 L228.75124,12.35194 L228.75112,12.35178 Z M151.72757,37.85582 C151.72757,39.49747 150.39808,40.82311 148.75644,40.82311 L139.58095,40.82311 C137.94315,40.82311 136.61366,39.49747 136.61366,37.85582 L136.61366,21.32764 C136.61366,19.68983 137.94315,18.35648 139.58095,18.35648 L148.75644,18.35648 C150.39808,18.35648 151.72757,19.68983 151.72757,21.32764 L151.72757,37.85582 Z M164.6218,12.35255 L123.71943,12.35255 C119.69625,12.35255 116.43608,15.61271 116.43608,19.6359 L116.43608,39.65546 C116.43608,43.67866 119.69625,46.93881 123.71943,46.93881 L164.6218,46.93881 C168.64499,46.93881 171.90516,43.67866 171.90516,39.65546 L171.90516,19.6359 C171.90516,15.61271 168.64499,12.35255 164.6218,12.35255 Z M89.65765,0.97972 L109.29571,0.97972 L109.29571,46.99585 L89.65765,46.99585 L89.65765,0.97972 Z M61.88073,0.97972 L81.64982,0.97972 L81.64982,7.56942 L61.88073,7.56942 L61.88073,0.97972 Z M61.88073,12.35178 L81.64982,12.35178 L81.64982,47.04209 L61.88073,47.04209 L61.88073,12.35178 Z" id="path368"></path>
        </g>
    </g>
</svg>