<?xml version="1.0" encoding="UTF-8"?>
<svg width="504px" height="166px" viewBox="0 0 504 166" version="1.1" xmlns="http://www.w3.org/2000/svg" xmlns:xlink="http://www.w3.org/1999/xlink">
    <!-- Generator: Sketch 48 (47235) - http://www.bohemiancoding.com/sketch -->
    <title>samsung-logo</title>
    <desc>Created with Sketch.</desc>
    <defs></defs>
    <g id="Page-1" stroke="none" stroke-width="1" fill="none" fill-rule="evenodd">
        <g id="samsung-logo">
            <path d="M429.664736,106.426234 C432.659634,104.399184 434.690317,101.312484 435.097872,96.8852273 C435.252248,95.1606061 435.274302,94.4465909 435.285328,93.4799242 L435.285328,79.6060606 L416.887068,79.6060606 L416.887068,87.1526515 L422.213025,87.1526515 L422.213025,94.655303 C422.218539,95.3089015 422.190972,96.0284091 422.097244,96.6215909 C421.854654,98.0001894 420.542461,100.367424 416.782313,100.367424 C413.027679,100.367424 411.721,98.0056818 411.49495,96.6215909 C411.390195,96.0284091 411.351601,95.3089015 411.362628,94.655303 L411.362628,71.0159091 C411.362628,70.1810606 411.423276,69.2583333 411.583165,68.5772727 C411.858835,67.2920455 412.967031,64.8094697 416.749233,64.8094697 C420.70235,64.8094697 421.700278,67.4348485 421.920815,68.5772727 C422.07519,69.3132576 422.102757,70.549053 422.09173,70.5435606 L422.09173,73.4380682 L435.17506,73.4380682 L435.17506,71.713447 C435.17506,71.713447 435.230194,69.9558712 435.059279,68.3081439 C434.105458,58.6304924 426.050361,55.5382576 416.848474,55.5382576 C407.635561,55.5382576 399.773433,58.6469697 398.62113,68.3081439 C398.521888,69.1704545 398.406107,70.7962121 398.406107,71.713447 L398.39508,93.4799242 C398.41162,94.4465909 398.433674,95.1606061 398.582536,96.8852273 C399.459169,106.288258 407.635561,109.644129 416.848474,109.644129 C419.469299,109.644129 422.008181,109.371578 424.319005,108.764184 C382.266497,126.81646 326.52813,142.954359 264.421273,153.684664 C125.417281,177.703484 7.16560783,165.515567 0.310919829,126.469192 C-6.53823127,87.4338033 100.600874,36.336825 239.604866,12.3234971 C378.614395,-11.7063084 496.843921,0.481608941 503.687535,39.5224906 C507.35422,60.3665438 478.513112,84.6569871 429.664736,106.426234 Z M372.713601,97.5388258 L372.426903,97.5388258 L360.50139,56.955303 L341.232011,56.955303 L341.232011,108.10625 L353.995562,108.10625 L353.284332,66.1276515 L353.560003,66.1276515 L366.378689,108.10625 L384.848623,108.10625 L384.848623,56.955303 L372.00237,56.955303 L372.713601,97.5388258 Z M139.204006,61.744697 L139.496217,61.744697 L146.410037,108.644508 L160.364486,108.644508 L150.787687,56.955303 L127.708539,56.955303 L118.087633,108.644508 L132.097216,108.644508 L139.204006,61.744697 Z M199.713717,96.467803 L199.438047,96.467803 L193.03146,56.955303 L171.859953,56.955303 L170.713163,108.644508 L183.708278,108.644508 L184.03357,62.1731061 L184.314754,62.1731061 L192.992866,108.644508 L206.158897,108.644508 L214.831497,62.1731061 L215.101654,62.1731061 L215.443486,108.644508 L228.411034,108.644508 L227.286297,56.955303 L206.125817,56.955303 L199.713717,96.467803 Z M96.237976,94.0621212 C96.74521,95.3143939 96.5908345,96.9236742 96.3537577,97.8958333 C95.918198,99.6149621 94.7493544,101.367045 91.2979577,101.367045 C88.0450438,101.367045 86.0712418,99.5106061 86.0712418,96.6710227 L86.0712418,91.6674242 L72.1553866,91.6674242 L72.1443598,95.6714015 C72.1443598,107.194508 81.2525186,110.671212 91.0112602,110.671212 C100.39509,110.671212 108.124895,107.474621 109.354386,98.8625 C109.982915,94.3971591 109.514275,91.4751894 109.299252,90.3712121 C107.110427,79.5511364 87.4165147,76.3215909 85.9499467,70.2689394 C85.7018431,69.2308712 85.7735175,68.1323864 85.8948126,67.544697 C86.2531845,65.8969697 87.3889476,64.0789773 90.6363481,64.0789773 C93.6687254,64.0789773 95.4605847,65.9464015 95.4605847,68.7695076 C95.4605847,69.719697 95.4605847,71.9606061 95.4605847,71.9606061 L108.400566,71.9606061 L108.400566,68.3301136 C108.400566,57.0706439 98.2558853,55.3130682 90.9065053,55.3130682 C81.6770514,55.3130682 74.134702,58.3503788 72.7563486,66.7647727 C72.3814365,69.0880682 72.3263024,71.1587121 72.8721303,73.7511364 C75.1381432,84.3130682 93.569484,87.3723485 96.237976,94.0621212 Z M264.959451,93.96875 C265.472198,95.2100379 265.306796,96.7753788 265.075232,97.7475379 C264.650699,99.4611742 263.492883,101.185795 260.06354,101.185795 C256.854733,101.185795 254.897471,99.3293561 254.897471,96.5556818 L254.886444,91.5960227 L241.113938,91.5960227 L241.097398,95.5450758 C241.097398,106.952841 250.122855,110.396591 259.782355,110.396591 C269.066944,110.396591 276.725075,107.243939 277.932512,98.7087121 C278.561041,94.2763258 278.114455,91.392803 277.888405,90.3107955 C275.710607,79.5895833 256.215177,76.3929924 254.765149,70.4007576 C254.517046,69.3681818 254.58872,68.2806818 254.715529,67.725947 C255.084927,66.0672348 256.198637,64.2931818 259.412957,64.2931818 C262.417767,64.2931818 264.171032,66.1166667 264.171032,68.917803 C264.171032,69.8570076 264.171032,72.075947 264.171032,72.075947 L277.011772,72.075947 L277.011772,68.4839015 C277.011772,57.3452652 266.949793,55.5986742 259.672087,55.5986742 C250.547388,55.5986742 243.065686,58.5975379 241.7149,66.9515152 C241.339988,69.2418561 241.301394,71.274053 241.836195,73.8554924 C244.069127,84.3075758 262.318526,87.3448864 264.959451,93.96875 Z M308.542983,100.911174 C304.915157,100.911174 303.823501,98.4285985 303.542317,97.1598485 C303.443076,96.6051136 303.421022,95.8526515 303.421022,95.1825758 L303.421022,56.9333333 L290.310125,56.9333333 L290.310125,94.0126894 C290.282558,94.9628788 290.376286,96.9181818 290.420393,97.4070076 C291.330107,107.057197 298.993751,110.187879 308.53747,110.187879 C318.070161,110.187879 325.728292,107.057197 326.649032,97.4070076 C326.69314,96.9181818 326.786868,94.9628788 326.759301,94.0126894 L326.759301,56.9333333 L313.637377,56.9333333 L313.637377,95.1825758 C313.648404,95.8526515 313.620837,96.5996212 313.516082,97.1598485 C313.267978,98.4285985 312.143242,100.911174 308.542983,100.911174 Z" id="Combined-Shape" fill="#FFFFFF" fill-rule="nonzero"></path>
            <g id="Group" transform="translate(72.000000, 55.000000)"></g>
        </g>
    </g>
</svg>