<?xml version="1.0" encoding="UTF-8"?>
<svg width="186px" height="26px" viewBox="0 0 186 26" version="1.1" xmlns="http://www.w3.org/2000/svg" xmlns:xlink="http://www.w3.org/1999/xlink">
    <!-- Generator: Sketch 48 (47235) - http://www.bohemiancoding.com/sketch -->
    <title>Spence Wetjen Copy</title>
    <desc>Created with Sketch.</desc>
    <defs></defs>
    <g id="Page-1" stroke="none" stroke-width="1" fill="none" fill-rule="evenodd">
        <path d="M9.584,14.792 C9.584,10.928 0.708,11.88 0.708,5.496 C0.708,2.556 3.004,0.092 6.812,0.092 C9.22,0.092 11.236,0.904 12.412,2.192 L10.564,4.768 C9.612,3.844 8.66,3.312 7.092,3.312 C5.384,3.312 4.348,4.18 4.348,5.468 C4.348,9.528 13.224,8.24 13.224,14.764 C13.224,18.068 10.34,20.308 6.672,20.308 C4.152,20.308 1.212,19.216 0.26,17.228 L2.22,14.876 C3.368,16.36 5.216,17.088 6.728,17.088 C8.352,17.088 9.584,16.276 9.584,14.792 Z M16.776,25.6 L16.776,7.4 L19.996,7.4 L19.996,8.604 C20.78,7.764 22.264,7.092 23.888,7.092 C27.36,7.092 29.6,9.78 29.6,13.504 C29.6,17.34 26.968,20.308 22.936,20.308 C21.816,20.308 20.724,20.112 19.996,19.692 L19.996,25.6 L16.776,25.6 Z M22.88,10.116 C21.788,10.116 20.78,10.62 19.996,11.488 L19.996,16.584 C20.864,17.144 21.592,17.312 22.656,17.312 C24.896,17.312 26.184,15.688 26.184,13.588 C26.184,11.572 25.008,10.116 22.88,10.116 Z M42.784,16.472 L43.708,18.74 C42.448,19.804 40.656,20.308 38.892,20.308 C34.832,20.308 32.116,17.676 32.116,13.7 C32.116,10.032 34.636,7.092 38.78,7.092 C42.028,7.092 44.744,9.416 44.744,12.944 C44.744,13.728 44.688,14.204 44.548,14.68 L35.448,14.68 C35.728,16.584 37.24,17.62 39.228,17.62 C40.768,17.62 42.056,17.06 42.784,16.472 Z M38.64,9.78 C36.708,9.78 35.672,10.872 35.336,12.524 L41.524,12.524 C41.552,10.984 40.488,9.78 38.64,9.78 Z M47.848,20 L47.848,7.4 L51.068,7.4 L51.068,8.66 C51.824,7.848 53.168,7.176 54.68,7.176 C57.76,7.176 59.86,8.66 59.86,12.608 L59.86,20 L56.64,20 L56.64,13.168 C56.64,11.152 55.604,10.2 53.812,10.2 C52.72,10.2 51.824,10.648 51.068,11.404 L51.068,20 L47.848,20 Z M73.184,15.772 L74.696,18.124 C73.632,19.552 71.728,20.308 69.684,20.308 C65.596,20.308 62.852,17.676 62.852,13.7 C62.852,10.032 65.54,7.092 69.376,7.092 C71.448,7.092 73.268,7.624 74.444,8.8 L72.932,11.348 C71.98,10.424 70.944,10.116 69.796,10.116 C68.004,10.116 66.296,11.488 66.296,13.7 C66.296,15.94 68.032,17.312 69.936,17.312 C71.308,17.312 72.372,16.668 73.184,15.772 Z M86.984,16.472 L87.908,18.74 C86.648,19.804 84.856,20.308 83.092,20.308 C79.032,20.308 76.316,17.676 76.316,13.7 C76.316,10.032 78.836,7.092 82.98,7.092 C86.228,7.092 88.944,9.416 88.944,12.944 C88.944,13.728 88.888,14.204 88.748,14.68 L79.648,14.68 C79.928,16.584 81.44,17.62 83.428,17.62 C84.968,17.62 86.256,17.06 86.984,16.472 Z M82.84,9.78 C80.908,9.78 79.872,10.872 79.536,12.524 L85.724,12.524 C85.752,10.984 84.688,9.78 82.84,9.78 Z M124.132,0.4 L118.532,20 L115.312,20 L110.58,5.832 L105.932,20 L102.684,20 L96.832,0.4 L100.696,0.4 L104.644,14.372 L109.012,0.4 L112.428,0.4 L116.908,14.4 L120.828,0.4 L124.132,0.4 Z M134.6,16.472 L135.524,18.74 C134.264,19.804 132.472,20.308 130.708,20.308 C126.648,20.308 123.932,17.676 123.932,13.7 C123.932,10.032 126.452,7.092 130.596,7.092 C133.844,7.092 136.56,9.416 136.56,12.944 C136.56,13.728 136.504,14.204 136.364,14.68 L127.264,14.68 C127.544,16.584 129.056,17.62 131.044,17.62 C132.584,17.62 133.872,17.06 134.6,16.472 Z M130.456,9.78 C128.524,9.78 127.488,10.872 127.152,12.524 L133.34,12.524 C133.368,10.984 132.304,9.78 130.456,9.78 Z M139.384,15.212 L139.384,3.9 L142.604,3.9 L142.604,7.4 L146.664,7.4 L146.664,10.424 L142.604,10.424 L142.604,15.016 C142.604,16.388 143.052,17.284 144.116,17.284 C144.984,17.284 145.6,16.892 146.048,16.556 L147.028,19.048 C146.272,19.664 144.928,20.28 143.304,20.28 C140.448,20.28 139.384,18.432 139.384,15.212 Z M154.108,7.4 L154.108,20.924 C154.108,24.004 152.96,25.824 150.16,25.824 C148.816,25.824 147.612,25.404 147.08,24.928 L147.948,22.38 C148.396,22.66 148.816,22.828 149.376,22.828 C150.496,22.828 150.888,21.96 150.888,20.644 L150.888,7.4 L154.108,7.4 Z M150.58,2.864 C150.58,1.716 151.504,0.988 152.596,0.988 C153.52,0.988 154.444,1.716 154.444,2.864 C154.444,4.152 153.52,4.88 152.596,4.88 C151.504,4.88 150.58,4.152 150.58,2.864 Z M168.58,16.472 L169.504,18.74 C168.244,19.804 166.452,20.308 164.688,20.308 C160.628,20.308 157.912,17.676 157.912,13.7 C157.912,10.032 160.432,7.092 164.576,7.092 C167.824,7.092 170.54,9.416 170.54,12.944 C170.54,13.728 170.484,14.204 170.344,14.68 L161.244,14.68 C161.524,16.584 163.036,17.62 165.024,17.62 C166.564,17.62 167.852,17.06 168.58,16.472 Z M164.436,9.78 C162.504,9.78 161.468,10.872 161.132,12.524 L167.32,12.524 C167.348,10.984 166.284,9.78 164.436,9.78 Z M173.644,20 L173.644,7.4 L176.864,7.4 L176.864,8.66 C177.62,7.848 178.964,7.176 180.476,7.176 C183.556,7.176 185.656,8.66 185.656,12.608 L185.656,20 L182.436,20 L182.436,13.168 C182.436,11.152 181.4,10.2 179.608,10.2 C178.516,10.2 177.62,10.648 176.864,11.404 L176.864,20 L173.644,20 Z" id="Spence-Wetjen-Copy" fill="#000000"></path>
    </g>
</svg>